<svg width="24" height="24" viewBox="0 0 24 24" fill="none" xmlns="http://www.w3.org/2000/svg">
<g clip-path="url(#clip0_10_440)">
<path d="M3.75 12.75H20.25V20.75C20.25 21.0152 20.1446 21.2696 19.9571 21.4571C19.7696 21.6446 19.5152 21.75 19.25 21.75H4.75C4.48478 21.75 4.23043 21.6446 4.04289 21.4571C3.85536 21.2696 3.75 21.0152 3.75 20.75V12.75Z" stroke="#978F8A" stroke-width="2" stroke-linecap="round" stroke-linejoin="round"/>
<path d="M3.75 13.447C2.60423 12.7875 1.70838 11.768 1.20162 10.5469C0.694858 9.32584 0.605572 7.9716 0.947631 6.69458C1.28969 5.41756 2.04394 4.28926 3.0932 3.485C4.14245 2.68073 5.42796 2.24553 6.75 2.247C11.25 2.247 12 6.747 15.75 6.747" stroke="#978F8A" stroke-width="2" stroke-linecap="round" stroke-linejoin="round"/>
<path d="M20.25 13.447C21.3958 12.7875 22.2916 11.768 22.7984 10.5469C23.3051 9.32584 23.3944 7.9716 23.0524 6.69458C22.7103 5.41756 21.9561 4.28926 20.9068 3.485C19.8575 2.68073 18.572 2.24553 17.25 2.247C14.71 2.247 13.365 3.681 12 4.93" stroke="#978F8A" stroke-width="2" stroke-linecap="round" stroke-linejoin="round"/>
<path d="M8.25 17.25V18.75" stroke="#978F8A" stroke-width="2" stroke-linecap="round" stroke-linejoin="round"/>
<path d="M12 17.25V18.75" stroke="#978F8A" stroke-width="2" stroke-linecap="round" stroke-linejoin="round"/>
<path d="M15.75 17.25V18.75" stroke="#978F8A" stroke-width="2" stroke-linecap="round" stroke-linejoin="round"/>
</g>
<defs>
<clipPath id="clip0_10_440">
<rect width="24" height="24" fill="white"/>
</clipPath>
</defs>
</svg>
