<svg width="204" height="308" viewBox="0 0 204 308" fill="none" xmlns="http://www.w3.org/2000/svg">
<rect width="72.7624" height="20.7235" rx="8" transform="matrix(0 1 1 0 26.2494 156.579)" fill="#BCC0D6"/>
<rect width="72.7624" height="20.7235" rx="8" transform="matrix(0 1 1 0 104.539 78.2897)" fill="#BCC0D6"/>
<rect width="72.7624" height="20.7235" rx="8" transform="matrix(0 1 1 0 78.2889 156.579)" fill="#9196B9"/>
<rect width="72.7624" height="20.7235" rx="8" transform="matrix(0 1 1 0 156.577 78.2897)" fill="#9196B9"/>
<rect width="72.7624" height="20.7235" rx="8" transform="matrix(0 1 1 0 0 0.00012207)" fill="#626894"/>
<rect width="72.7624" height="20.7235" rx="8" transform="matrix(0 1 1 0 182.827 234.868)" fill="#626894"/>
<rect width="20.5558" height="20.6595" rx="8" transform="matrix(0 1 1 0 0.171265 130.495)" fill="#626894"/>
<rect width="20.5558" height="20.6595" rx="8" transform="matrix(0 1 1 0 0.171265 104.365)" fill="#626894"/>
<rect width="20.5558" height="20.6595" rx="8" transform="matrix(0 1 1 0 0.171265 78.2357)" fill="#626894"/>
<rect width="20.5558" height="20.6595" rx="8" transform="matrix(0 1 1 0 182.72 208.838)" fill="#626894"/>
<rect width="20.5558" height="20.6595" rx="8" transform="matrix(0 1 1 0 182.72 182.709)" fill="#626894"/>
<rect width="20.5558" height="20.6595" rx="8" transform="matrix(0 1 1 0 182.72 156.579)" fill="#626894"/>
<rect width="72.7624" height="20.2629" rx="8" transform="matrix(0 1 1 0 52.4998 156.579)" fill="#DCDDE9"/>
<rect width="72.7624" height="20.2629" rx="8" transform="matrix(0 1 1 0 130.788 78.2897)" fill="#DCDDE9"/>
<rect width="72.8161" height="20.6595" rx="8" transform="matrix(1 0 0 -1 26.2494 151.105)" fill="#9196B9"/>
<rect width="72.8161" height="20.6595" rx="8" transform="matrix(1 0 0 -1 26.2494 98.9489)" fill="#BCC0D6"/>
<rect width="72.8161" height="20.6595" rx="8" transform="matrix(1 0 0 -1 26.2494 125.028)" fill="#DCDDE9"/>
<rect width="72.8161" height="20.6595" rx="8" transform="matrix(1 0 0 -1 104.484 229.341)" fill="#9196B9"/>
<rect width="72.8161" height="20.6595" rx="8" transform="matrix(1 0 0 -1 104.484 177.182)" fill="#BCC0D6"/>
<rect width="72.8161" height="20.6595" rx="8" transform="matrix(1 0 0 -1 104.484 203.263)" fill="#DCDDE9"/>
</svg>
