<?xml version="1.0" encoding="UTF-8"?>
<svg width="37px" height="21px" viewBox="0 0 37 21" version="1.1" xmlns="http://www.w3.org/2000/svg" xmlns:xlink="http://www.w3.org/1999/xlink">
    <!-- Generator: Sketch 61.1 (89650) - https://sketch.com -->
    <title>ir-mark</title>
    <desc>Created with Sketch.</desc>
    <g id="Home" stroke="none" stroke-width="1" fill="none" fill-rule="evenodd">
        <g id="home" transform="translate(-412.000000, -6920.000000)" fill="#FFFFFF" fill-rule="nonzero">
            <g id="Group-24" transform="translate(0.000000, 6496.000000)">
                <g id="Group-18" transform="translate(150.000000, 140.000000)">
                    <path d="M272.163935,284 C277.777321,284 282.327869,288.550548 282.327869,294.163934 C282.327869,299.777321 277.777321,304.327869 272.163935,304.327869 C266.550548,304.327869 262,299.777321 262,294.163934 C262,288.550548 266.550548,284 272.163935,284 Z M288.585277,284 C294.193985,284 298.740741,288.550548 298.740741,294.163934 C298.740741,299.777321 294.193985,304.327869 288.585277,304.327869 C285.930021,304.327869 283.512773,303.307985 281.703285,301.638276 C282.78736,300.246512 283.573371,298.610795 283.965312,296.827212 C284.886397,298.424229 286.610426,299.499027 288.585277,299.499027 C291.529311,299.499027 293.915923,297.110425 293.915923,294.163934 C293.915923,291.217444 291.529311,288.828842 288.585277,288.828842 C286.596926,288.828842 284.86284,289.918384 283.946537,291.533479 C283.542024,289.753666 282.744552,288.123382 281.650273,286.738858 C283.465429,285.039967 285.904005,284 288.585277,284 Z M272.163935,288.828842 C269.217444,288.828842 266.828842,291.217444 266.828842,294.163934 C266.828842,297.110425 269.217444,299.499027 272.163935,299.499027 C275.110425,299.499027 277.499026,297.110425 277.499026,294.163934 C277.499026,291.217444 275.110425,288.828842 272.163935,288.828842 Z" id="ir-mark"></path>
                </g>
            </g>
        </g>
    </g>
</svg>