<svg width="290" height="56" viewBox="0 0 290 56" fill="none" xmlns="http://www.w3.org/2000/svg">
<path d="M125.4 24L128.808 12.8H131.272L134.696 24H133.24L132.392 21.2H127.688L126.856 24H125.4ZM128.04 19.92H132.04L130.152 13.664H129.928L128.04 19.92ZM143.912 24.224C143.144 24.224 142.456 24.064 141.848 23.744C141.251 23.4133 140.776 22.944 140.424 22.336C140.083 21.728 139.912 21.008 139.912 20.176V20C139.912 19.1573 140.083 18.432 140.424 17.824C140.776 17.216 141.251 16.752 141.848 16.432C142.456 16.112 143.144 15.952 143.912 15.952C144.659 15.952 145.294 16.0907 145.816 16.368C146.35 16.6347 146.766 16.9973 147.064 17.456C147.374 17.9147 147.571 18.4107 147.656 18.944L146.376 19.216C146.323 18.832 146.2 18.4853 146.008 18.176C145.816 17.856 145.544 17.6053 145.192 17.424C144.851 17.232 144.43 17.136 143.928 17.136C143.416 17.136 142.958 17.2533 142.552 17.488C142.147 17.712 141.827 18.0427 141.592 18.48C141.358 18.9067 141.24 19.4187 141.24 20.016V20.16C141.24 20.7573 141.358 21.2693 141.592 21.696C141.827 22.1227 142.147 22.4533 142.552 22.688C142.958 22.9227 143.416 23.04 143.928 23.04C144.696 23.04 145.278 22.8427 145.672 22.448C146.078 22.0427 146.328 21.5413 146.424 20.944L147.72 21.232C147.614 21.7547 147.4 22.2453 147.08 22.704C146.771 23.1627 146.35 23.5307 145.816 23.808C145.294 24.0853 144.659 24.224 143.912 24.224ZM153.475 24.224C152.686 24.224 151.987 24.0587 151.379 23.728C150.771 23.3973 150.297 22.9333 149.955 22.336C149.625 21.728 149.459 21.0133 149.459 20.192V19.984C149.459 19.1627 149.625 18.448 149.955 17.84C150.297 17.232 150.771 16.768 151.379 16.448C151.987 16.1173 152.686 15.952 153.475 15.952C154.265 15.952 154.958 16.1173 155.555 16.448C156.163 16.768 156.633 17.232 156.963 17.84C157.305 18.448 157.475 19.1627 157.475 19.984V20.192C157.475 21.0133 157.305 21.728 156.963 22.336C156.633 22.9333 156.163 23.3973 155.555 23.728C154.958 24.0587 154.265 24.224 153.475 24.224ZM153.475 23.04C154.286 23.04 154.937 22.784 155.427 22.272C155.918 21.7493 156.163 21.0453 156.163 20.16V20.016C156.163 19.1307 155.918 18.432 155.427 17.92C154.937 17.3973 154.286 17.136 153.475 17.136C152.665 17.136 152.014 17.3973 151.523 17.92C151.033 18.432 150.787 19.1307 150.787 20.016V20.16C150.787 21.0453 151.033 21.7493 151.523 22.272C152.014 22.784 152.665 23.04 153.475 23.04ZM163.35 24.224C162.561 24.224 161.862 24.0587 161.254 23.728C160.646 23.3973 160.172 22.9333 159.83 22.336C159.5 21.728 159.334 21.0133 159.334 20.192V19.984C159.334 19.1627 159.5 18.448 159.83 17.84C160.172 17.232 160.646 16.768 161.254 16.448C161.862 16.1173 162.561 15.952 163.35 15.952C164.14 15.952 164.833 16.1173 165.43 16.448C166.038 16.768 166.508 17.232 166.838 17.84C167.18 18.448 167.35 19.1627 167.35 19.984V20.192C167.35 21.0133 167.18 21.728 166.838 22.336C166.508 22.9333 166.038 23.3973 165.43 23.728C164.833 24.0587 164.14 24.224 163.35 24.224ZM163.35 23.04C164.161 23.04 164.812 22.784 165.302 22.272C165.793 21.7493 166.038 21.0453 166.038 20.16V20.016C166.038 19.1307 165.793 18.432 165.302 17.92C164.812 17.3973 164.161 17.136 163.35 17.136C162.54 17.136 161.889 17.3973 161.398 17.92C160.908 18.432 160.662 19.1307 160.662 20.016V20.16C160.662 21.0453 160.908 21.7493 161.398 22.272C161.889 22.784 162.54 23.04 163.35 23.04ZM169.593 24V12.8H170.921V19.36H171.145L174.649 16.176H176.489L172.201 19.984L176.617 24H174.809L171.145 20.624H170.921V24H169.593ZM182.602 24.224C181.791 24.224 181.162 24.0747 180.714 23.776C180.277 23.4667 179.957 23.12 179.754 22.736H179.53V24H178.234V12.8H179.562V17.376H179.786C179.914 17.1307 180.095 16.9013 180.33 16.688C180.565 16.4747 180.869 16.2987 181.242 16.16C181.615 16.0213 182.069 15.952 182.602 15.952C183.285 15.952 183.903 16.112 184.458 16.432C185.013 16.752 185.455 17.216 185.786 17.824C186.117 18.4213 186.282 19.1413 186.282 19.984V20.192C186.282 21.024 186.117 21.744 185.786 22.352C185.455 22.96 185.007 23.424 184.442 23.744C183.887 24.064 183.274 24.224 182.602 24.224ZM182.25 23.056C183.039 23.056 183.685 22.8 184.186 22.288C184.687 21.776 184.938 21.0667 184.938 20.16V20.016C184.938 19.0987 184.687 18.3893 184.186 17.888C183.685 17.376 183.039 17.12 182.25 17.12C181.461 17.12 180.81 17.376 180.298 17.888C179.797 18.3893 179.546 19.0987 179.546 20.016V20.16C179.546 21.0667 179.797 21.776 180.298 22.288C180.81 22.8 181.461 23.056 182.25 23.056ZM192.147 24.224C191.358 24.224 190.659 24.0587 190.051 23.728C189.443 23.3973 188.968 22.9333 188.627 22.336C188.296 21.728 188.131 21.0133 188.131 20.192V19.984C188.131 19.1627 188.296 18.448 188.627 17.84C188.968 17.232 189.443 16.768 190.051 16.448C190.659 16.1173 191.358 15.952 192.147 15.952C192.936 15.952 193.63 16.1173 194.227 16.448C194.835 16.768 195.304 17.232 195.635 17.84C195.976 18.448 196.147 19.1627 196.147 19.984V20.192C196.147 21.0133 195.976 21.728 195.635 22.336C195.304 22.9333 194.835 23.3973 194.227 23.728C193.63 24.0587 192.936 24.224 192.147 24.224ZM192.147 23.04C192.958 23.04 193.608 22.784 194.099 22.272C194.59 21.7493 194.835 21.0453 194.835 20.16V20.016C194.835 19.1307 194.59 18.432 194.099 17.92C193.608 17.3973 192.958 17.136 192.147 17.136C191.336 17.136 190.686 17.3973 190.195 17.92C189.704 18.432 189.459 19.1307 189.459 20.016V20.16C189.459 21.0453 189.704 21.7493 190.195 22.272C190.686 22.784 191.336 23.04 192.147 23.04ZM202.022 24.224C201.233 24.224 200.534 24.0587 199.926 23.728C199.318 23.3973 198.843 22.9333 198.502 22.336C198.171 21.728 198.006 21.0133 198.006 20.192V19.984C198.006 19.1627 198.171 18.448 198.502 17.84C198.843 17.232 199.318 16.768 199.926 16.448C200.534 16.1173 201.233 15.952 202.022 15.952C202.811 15.952 203.505 16.1173 204.102 16.448C204.71 16.768 205.179 17.232 205.51 17.84C205.851 18.448 206.022 19.1627 206.022 19.984V20.192C206.022 21.0133 205.851 21.728 205.51 22.336C205.179 22.9333 204.71 23.3973 204.102 23.728C203.505 24.0587 202.811 24.224 202.022 24.224ZM202.022 23.04C202.833 23.04 203.483 22.784 203.974 22.272C204.465 21.7493 204.71 21.0453 204.71 20.16V20.016C204.71 19.1307 204.465 18.432 203.974 17.92C203.483 17.3973 202.833 17.136 202.022 17.136C201.211 17.136 200.561 17.3973 200.07 17.92C199.579 18.432 199.334 19.1307 199.334 20.016V20.16C199.334 21.0453 199.579 21.7493 200.07 22.272C200.561 22.784 201.211 23.04 202.022 23.04ZM208.265 24V12.8H209.593V19.36H209.817L213.321 16.176H215.161L210.873 19.984L215.289 24H213.481L209.817 20.624H209.593V24H208.265ZM222.535 24V17.312H220.167V16.176H222.535V14.224C222.535 13.776 222.658 13.4293 222.903 13.184C223.148 12.928 223.5 12.8 223.959 12.8H225.927V13.936H224.327C224.018 13.936 223.863 14.096 223.863 14.416V16.176H226.295V17.312H223.863V24H222.535ZM231.335 24.224C230.545 24.224 229.847 24.0587 229.239 23.728C228.631 23.3973 228.156 22.9333 227.815 22.336C227.484 21.728 227.319 21.0133 227.319 20.192V19.984C227.319 19.1627 227.484 18.448 227.815 17.84C228.156 17.232 228.631 16.768 229.239 16.448C229.847 16.1173 230.545 15.952 231.335 15.952C232.124 15.952 232.817 16.1173 233.415 16.448C234.023 16.768 234.492 17.232 234.823 17.84C235.164 18.448 235.335 19.1627 235.335 19.984V20.192C235.335 21.0133 235.164 21.728 234.823 22.336C234.492 22.9333 234.023 23.3973 233.415 23.728C232.817 24.0587 232.124 24.224 231.335 24.224ZM231.335 23.04C232.145 23.04 232.796 22.784 233.287 22.272C233.777 21.7493 234.023 21.0453 234.023 20.16V20.016C234.023 19.1307 233.777 18.432 233.287 17.92C232.796 17.3973 232.145 17.136 231.335 17.136C230.524 17.136 229.873 17.3973 229.383 17.92C228.892 18.432 228.647 19.1307 228.647 20.016V20.16C228.647 21.0453 228.892 21.7493 229.383 22.272C229.873 22.784 230.524 23.04 231.335 23.04ZM237.578 24V16.176H238.874V17.12H239.098C239.236 16.7787 239.444 16.5333 239.722 16.384C240.01 16.224 240.388 16.144 240.858 16.144H241.786V17.344H240.778C240.212 17.344 239.759 17.4987 239.418 17.808C239.076 18.1173 238.906 18.6027 238.906 19.264V24H237.578ZM126.264 44V32.8H130.808C131.512 32.8 132.125 32.9227 132.648 33.168C133.171 33.4027 133.581 33.744 133.88 34.192C134.179 34.6293 134.328 35.1573 134.328 35.776V35.952C134.328 36.6773 134.152 37.2533 133.8 37.68C133.459 38.1067 133.048 38.4 132.568 38.56V38.784C132.963 38.7947 133.283 38.9227 133.528 39.168C133.773 39.4133 133.896 39.7707 133.896 40.24V44H132.504V40.416C132.504 40.1067 132.419 39.8667 132.248 39.696C132.077 39.5147 131.816 39.424 131.464 39.424H127.672V44H126.264ZM127.672 38.16H130.68C131.395 38.16 131.949 37.9893 132.344 37.648C132.739 37.296 132.936 36.8053 132.936 36.176V36.064C132.936 35.4347 132.744 34.9493 132.36 34.608C131.976 34.256 131.416 34.08 130.68 34.08H127.672V38.16ZM139.99 44.224C139.2 44.224 138.507 44.0587 137.91 43.728C137.312 43.3867 136.848 42.912 136.518 42.304C136.187 41.696 136.022 40.9867 136.022 40.176V39.984C136.022 39.1733 136.187 38.4693 136.518 37.872C136.848 37.264 137.307 36.7947 137.894 36.464C138.48 36.1227 139.152 35.952 139.91 35.952C140.656 35.952 141.312 36.112 141.878 36.432C142.443 36.7413 142.886 37.1893 143.206 37.776C143.526 38.3627 143.686 39.056 143.686 39.856V40.432H137.35C137.382 41.2533 137.648 41.8987 138.15 42.368C138.651 42.8267 139.275 43.056 140.022 43.056C140.694 43.056 141.206 42.9067 141.558 42.608C141.91 42.2987 142.176 41.936 142.358 41.52L143.51 42.064C143.35 42.3947 143.126 42.7253 142.838 43.056C142.56 43.3867 142.192 43.664 141.734 43.888C141.275 44.112 140.694 44.224 139.99 44.224ZM137.366 39.36H142.342C142.299 38.656 142.054 38.1067 141.606 37.712C141.168 37.3173 140.603 37.12 139.91 37.12C139.206 37.12 138.63 37.3173 138.182 37.712C137.744 38.1067 137.472 38.656 137.366 39.36ZM148.259 44.224C147.715 44.224 147.219 44.128 146.771 43.936C146.323 43.744 145.971 43.4667 145.715 43.104C145.459 42.7307 145.331 42.2827 145.331 41.76C145.331 41.2373 145.459 40.8 145.715 40.448C145.971 40.096 146.323 39.8347 146.771 39.664C147.219 39.4827 147.72 39.392 148.275 39.392H150.899V38.832C150.899 38.288 150.739 37.8613 150.419 37.552C150.099 37.232 149.624 37.072 148.995 37.072C148.376 37.072 147.891 37.2213 147.539 37.52C147.198 37.8187 146.968 38.2187 146.851 38.72L145.603 38.32C145.731 37.8827 145.934 37.488 146.211 37.136C146.488 36.7733 146.856 36.4853 147.315 36.272C147.784 36.0587 148.35 35.952 149.011 35.952C150.014 35.952 150.792 36.208 151.347 36.72C151.912 37.232 152.195 37.9627 152.195 38.912V42.4C152.195 42.72 152.344 42.88 152.643 42.88H153.363V44H152.227C151.875 44 151.592 43.904 151.379 43.712C151.166 43.5093 151.059 43.2427 151.059 42.912V42.832H150.835C150.739 43.0347 150.59 43.248 150.387 43.472C150.195 43.6853 149.928 43.8613 149.587 44C149.246 44.1493 148.803 44.224 148.259 44.224ZM148.435 43.088C149.16 43.088 149.752 42.8747 150.211 42.448C150.67 42.0107 150.899 41.408 150.899 40.64V40.448H148.339C147.848 40.448 147.443 40.5547 147.123 40.768C146.814 40.9813 146.659 41.3013 146.659 41.728C146.659 42.1547 146.819 42.4907 147.139 42.736C147.47 42.9707 147.902 43.088 148.435 43.088ZM158.475 44.224C157.707 44.224 157.019 44.064 156.411 43.744C155.814 43.4133 155.339 42.944 154.987 42.336C154.646 41.728 154.475 41.008 154.475 40.176V40C154.475 39.1573 154.646 38.432 154.987 37.824C155.339 37.216 155.814 36.752 156.411 36.432C157.019 36.112 157.707 35.952 158.475 35.952C159.222 35.952 159.856 36.0907 160.379 36.368C160.912 36.6347 161.328 36.9973 161.627 37.456C161.936 37.9147 162.134 38.4107 162.219 38.944L160.939 39.216C160.886 38.832 160.763 38.4853 160.571 38.176C160.379 37.856 160.107 37.6053 159.755 37.424C159.414 37.232 158.992 37.136 158.491 37.136C157.979 37.136 157.52 37.2533 157.115 37.488C156.71 37.712 156.39 38.0427 156.155 38.48C155.92 38.9067 155.803 39.4187 155.803 40.016V40.16C155.803 40.7573 155.92 41.2693 156.155 41.696C156.39 42.1227 156.71 42.4533 157.115 42.688C157.52 42.9227 157.979 43.04 158.491 43.04C159.259 43.04 159.84 42.8427 160.235 42.448C160.64 42.0427 160.891 41.5413 160.987 40.944L162.283 41.232C162.176 41.7547 161.963 42.2453 161.643 42.704C161.334 43.1627 160.912 43.5307 160.379 43.808C159.856 44.0853 159.222 44.224 158.475 44.224ZM166.989 44C166.531 44 166.173 43.8773 165.917 43.632C165.672 43.376 165.549 43.024 165.549 42.576V37.312H163.245V36.176H165.549V33.408H166.877V36.176H169.421V37.312H166.877V42.384C166.877 42.704 167.037 42.864 167.357 42.864H169.069V44H166.989ZM175.514 44V32.8H178.234L181.994 43.104H182.218V32.8H183.61V44H180.89L177.13 33.68H176.906V44H175.514ZM188.587 44.224C188.043 44.224 187.547 44.128 187.099 43.936C186.651 43.744 186.299 43.4667 186.043 43.104C185.787 42.7307 185.659 42.2827 185.659 41.76C185.659 41.2373 185.787 40.8 186.043 40.448C186.299 40.096 186.651 39.8347 187.099 39.664C187.547 39.4827 188.048 39.392 188.603 39.392H191.227V38.832C191.227 38.288 191.067 37.8613 190.747 37.552C190.427 37.232 189.952 37.072 189.323 37.072C188.704 37.072 188.219 37.2213 187.867 37.52C187.526 37.8187 187.296 38.2187 187.179 38.72L185.931 38.32C186.059 37.8827 186.262 37.488 186.539 37.136C186.816 36.7733 187.184 36.4853 187.643 36.272C188.112 36.0587 188.678 35.952 189.339 35.952C190.342 35.952 191.12 36.208 191.675 36.72C192.24 37.232 192.523 37.9627 192.523 38.912V42.4C192.523 42.72 192.672 42.88 192.971 42.88H193.691V44H192.555C192.203 44 191.92 43.904 191.707 43.712C191.494 43.5093 191.387 43.2427 191.387 42.912V42.832H191.163C191.067 43.0347 190.918 43.248 190.715 43.472C190.523 43.6853 190.256 43.8613 189.915 44C189.574 44.1493 189.131 44.224 188.587 44.224ZM188.763 43.088C189.488 43.088 190.08 42.8747 190.539 42.448C190.998 42.0107 191.227 41.408 191.227 40.64V40.448H188.667C188.176 40.448 187.771 40.5547 187.451 40.768C187.142 40.9813 186.987 41.3013 186.987 41.728C186.987 42.1547 187.147 42.4907 187.467 42.736C187.798 42.9707 188.23 43.088 188.763 43.088ZM197.771 44C197.312 44 196.955 43.8773 196.699 43.632C196.453 43.376 196.331 43.024 196.331 42.576V37.312H194.027V36.176H196.331V33.408H197.659V36.176H200.203V37.312H197.659V42.384C197.659 42.704 197.819 42.864 198.139 42.864H199.851V44H197.771ZM202.234 44V36.176H203.562V44H202.234ZM202.89 34.976C202.613 34.976 202.378 34.8853 202.186 34.704C201.994 34.512 201.898 34.272 201.898 33.984C201.898 33.6853 201.994 33.4453 202.186 33.264C202.378 33.0827 202.613 32.992 202.89 32.992C203.178 32.992 203.413 33.0827 203.594 33.264C203.786 33.4453 203.882 33.6853 203.882 33.984C203.882 34.272 203.786 34.512 203.594 34.704C203.413 34.8853 203.178 34.976 202.89 34.976ZM208.123 44L205.339 36.176H206.763L209.067 43.008H209.291L211.595 36.176H213.019L210.235 44H208.123ZM218.068 44.224C217.279 44.224 216.585 44.0587 215.988 43.728C215.391 43.3867 214.927 42.912 214.596 42.304C214.265 41.696 214.1 40.9867 214.1 40.176V39.984C214.1 39.1733 214.265 38.4693 214.596 37.872C214.927 37.264 215.385 36.7947 215.972 36.464C216.559 36.1227 217.231 35.952 217.988 35.952C218.735 35.952 219.391 36.112 219.956 36.432C220.521 36.7413 220.964 37.1893 221.284 37.776C221.604 38.3627 221.764 39.056 221.764 39.856V40.432H215.428C215.46 41.2533 215.727 41.8987 216.228 42.368C216.729 42.8267 217.353 43.056 218.1 43.056C218.772 43.056 219.284 42.9067 219.636 42.608C219.988 42.2987 220.255 41.936 220.436 41.52L221.588 42.064C221.428 42.3947 221.204 42.7253 220.916 43.056C220.639 43.3867 220.271 43.664 219.812 43.888C219.353 44.112 218.772 44.224 218.068 44.224ZM215.444 39.36H220.42C220.377 38.656 220.132 38.1067 219.684 37.712C219.247 37.3173 218.681 37.12 217.988 37.12C217.284 37.12 216.708 37.3173 216.26 37.712C215.823 38.1067 215.551 38.656 215.444 39.36Z" fill="#564E4A"/>
<path fill-rule="evenodd" clip-rule="evenodd" d="M72.2096 12.8294L70.3766 13.05C69.9182 13.1053 69.5895 12.685 69.6138 12.171L69.8966 8.71337C69.9696 8.14233 70.3559 7.68723 70.8141 7.63213L72.6982 7.40514L73.1709 1.67639C73.2463 1.15623 73.6815 0.644048 74.1395 0.588957L78.567 0.00486534C79.0254 -0.0502252 79.3546 0.369923 79.2787 0.890075L78.8089 6.66971L82.4749 6.22832C82.9843 6.16704 83.311 6.53652 83.2378 7.10756L82.9552 10.5652C82.8796 11.0851 82.4959 11.5911 81.9866 11.6526L78.3206 12.0938L77.5636 20.2587C77.4335 21.7052 78.1568 21.8223 78.7679 21.7488C79.36 21.6775 80.008 21.3174 80.4962 21.0461L80.4965 21.0459C80.596 20.9906 80.6888 20.939 80.7732 20.8943C81.2718 20.6297 81.6416 20.8408 81.7695 21.3364L82.4517 24.6268C82.5798 25.1224 82.2955 25.5653 81.7509 25.9375C81.3566 26.2406 78.4583 27.6623 76.1667 27.9382C72.6533 28.3612 71.0509 26.1012 71.3984 21.9205L72.2096 12.8294ZM63.1536 6.45892C64.7391 6.45892 66.0244 5.17367 66.0244 3.5883C66.0244 2.00292 64.7391 0.717672 63.1536 0.717672C61.5682 0.717672 60.2831 2.00292 60.2831 3.5883C60.2831 5.17367 61.5682 6.45892 63.1536 6.45892ZM8.46225 8.61826L3.87924 9.20322C3.29332 9.27819 2.84007 9.74889 2.79184 10.3325L0.00939089 45.1102C-0.0648682 45.6514 0.311861 46.0247 0.76534 45.9088L5.70312 44.6465C6.15682 44.5306 6.5863 43.9511 6.61008 43.4231L9.32687 9.43688C9.36695 8.95339 8.94743 8.55631 8.46225 8.61826ZM40.1408 32.3676L35.9341 33.0046C35.478 33.0735 35.0994 32.6681 35.1746 32.143L36.8107 13.2859C36.8325 12.7169 37.2677 12.2398 37.7238 12.1709L39.7005 11.8716C40.0045 11.8256 40.3726 12.0269 40.4415 12.3763L40.9946 14.1946C41.9129 13.1816 44.2864 10.6633 47.6823 10.1492C53.2577 9.30497 55.6858 13.821 55.1985 19.2411L54.3332 29.2423C54.3087 29.7602 53.876 30.2882 53.4199 30.3573L49.0104 31.0249C48.5036 31.1016 48.2266 30.6806 48.2511 30.1631L49.2018 19.8407C49.4201 17.1343 48.4215 15.5891 46.3942 15.8962C43.7587 16.2952 42.1822 19.4124 42.1822 19.4124L41.1552 31.2373C41.0908 31.9667 40.8503 32.2603 40.1408 32.3676ZM58.9426 30.1355L63.4098 29.5359C63.8668 29.4746 64.3508 28.9443 64.3753 28.4242L66.0163 9.4919C66.0889 8.91372 65.662 8.55741 65.2052 8.6187L60.7378 9.21835C60.281 9.27986 59.8451 9.7518 59.7725 10.3302L58.1313 29.2623C58.1068 29.7824 58.4856 30.1968 58.9426 30.1355ZM100.218 22.889C98.539 24.7339 96.0819 26.194 93.1627 26.5072C88.3311 27.0255 84.9482 23.1223 84.6998 18.1543C84.3764 11.6856 88.855 5.11777 95.9012 4.3618C99.8773 3.93523 102.46 5.99931 102.618 9.15621C102.882 14.4347 95.4707 16.9988 90.3392 17.6013C90.2945 19.7393 91.3336 21.2927 93.8503 21.0226C95.0581 20.8932 96.5371 20.11 97.3614 19.3973C97.7989 19.0381 98.2468 18.8862 98.519 19.273L100.301 21.5272C100.571 21.8625 100.6 22.4315 100.218 22.889ZM96.9613 10.3874C96.925 9.66276 96.3433 9.15299 95.1855 9.27722C93.1721 9.49321 91.358 11.6648 90.8923 13.4836C93.3058 13.1727 97.0441 12.0434 96.9613 10.3874ZM103.268 28.1082C97.713 28.3939 75.5892 34.7036 69.344 37.629L72.3126 30.7104C72.3795 30.5548 72.2353 30.3917 72.0726 30.4383L67.3957 31.7729C61.3008 33.5126 49.7398 37.2781 43.3174 39.3925L44.7537 34.6084C44.7984 34.4604 44.6658 34.3197 44.5151 34.3552L40.6216 35.2705C40.5601 35.2847 36.5515 36.2287 29.7132 37.9327C29.7667 37.532 29.813 37.1207 29.8496 36.695L31.7004 14.4836C31.7719 13.9043 31.3999 13.5632 30.9482 13.6484L28.991 14.0182C28.6899 14.075 28.3044 14.4566 28.1218 14.8512L27.3023 16.6522C26.5474 15.7659 24.3987 14.3716 21.5385 14.912C15.8181 15.9927 11.4889 22.469 11.8258 29.0411C12.0895 34.1865 15.4597 37.6648 19.9255 36.8211C21.3808 36.5463 23.0055 35.6221 23.8826 34.9418L23.4944 39.4968C21.1808 40.0839 18.6721 40.7262 15.9903 41.4207C13.0137 42.192 10.9269 44.2185 10.2652 46.9805C9.80036 48.9217 10.0957 50.9963 10.9936 52.6805C11.3862 53.4174 11.894 54.0793 12.5048 54.6224C13.5776 55.2978 15.1497 55.9249 16.9742 55.9737C17.4471 55.9866 17.9348 55.9646 18.437 55.8898C23.0937 55.1957 26.7623 52.6537 28.4308 46.7479L28.4746 46.7545L29.2506 43.2241C32.651 42.3722 35.4503 41.6842 37.5328 41.1774L35.8331 46.8364C35.7865 46.9925 35.9349 47.1363 36.0896 47.0848L40.3172 45.6747C40.4821 45.6197 54.1345 41.0702 63.6589 38.1329L59.4263 47.9973C59.3515 48.1722 59.539 48.3435 59.7063 48.2534L65.5341 45.1216C65.5755 45.0993 71.0003 42.6767 77.9575 39.5698L77.9609 39.5683C84.6599 36.5766 92.7789 32.9509 98.8807 30.2226C100.304 29.5862 102.478 28.6132 103.299 28.2456C103.372 28.2132 103.347 28.1042 103.268 28.1082ZM17.5253 27.5526C17.648 29.9471 19.0416 31.4329 21.149 31.0347C23.2064 30.6458 24.3505 29.2464 24.3505 29.2464L25.0387 21.9149C24.7538 21.3001 23.7275 20.0538 21.8205 20.4141C19.2614 20.8977 17.358 24.2921 17.5253 27.5526ZM22.7345 45.5426L22.7552 45.5415L22.9299 44.8221C21.1373 45.2794 19.2455 45.7652 17.2517 46.2815C16.0682 46.5876 15.3818 47.1991 15.1541 48.1492L15.1516 48.1593L15.1503 48.1657C14.9312 49.1074 15.5311 50.0483 16.4517 50.3468C17.0648 50.5455 17.7954 50.652 18.634 50.5275C20.74 50.213 22.0237 48.6744 22.7345 45.5426Z" fill="#C76542"/>
</svg>
