<svg width="177" height="36" viewBox="0 0 177 36" fill="none" xmlns="http://www.w3.org/2000/svg">
<path fill-rule="evenodd" clip-rule="evenodd" d="M39.8282 11.3721L38.8172 11.4938C38.5643 11.5243 38.383 11.2925 38.3964 11.009L38.5524 9.10186C38.5926 8.7869 38.8057 8.53588 39.0584 8.50549L40.0976 8.38029L40.3584 5.22052C40.4 4.93362 40.64 4.65112 40.8926 4.62073L43.3347 4.29857C43.5875 4.26818 43.7691 4.49992 43.7272 4.78682L43.4681 7.97465L45.4901 7.7312C45.771 7.6974 45.9513 7.90119 45.9109 8.21615L45.755 10.1233C45.7133 10.41 45.5017 10.6891 45.2208 10.7231L43.1988 10.9664L42.7812 15.4698C42.7094 16.2677 43.1084 16.3322 43.4454 16.2917C43.772 16.2524 44.1294 16.0538 44.3987 15.9041C44.4537 15.8736 44.5049 15.8451 44.5515 15.8204C44.8265 15.6745 45.0305 15.7909 45.101 16.0643L45.4773 17.8791C45.548 18.1525 45.3912 18.3968 45.0908 18.602C44.8733 18.7692 43.2747 19.5534 42.0107 19.7056C40.0729 19.9389 39.189 18.6923 39.3807 16.3864L39.8282 11.3721ZM34.8332 7.8584C35.7076 7.8584 36.4166 7.1495 36.4166 6.27507C36.4166 5.40063 35.7076 4.69173 34.8332 4.69173C33.9587 4.69173 33.2499 5.40063 33.2499 6.27507C33.2499 7.1495 33.9587 7.8584 34.8332 7.8584ZM4.66747 9.04941L2.13965 9.37205C1.81648 9.4134 1.56648 9.67302 1.53988 9.99491L0.00517967 29.177C-0.035779 29.4755 0.172011 29.6814 0.422134 29.6175L3.14563 28.9213C3.39588 28.8574 3.63277 28.5377 3.64588 28.2465L5.14436 9.50093C5.16647 9.23425 4.93508 9.01524 4.66747 9.04941ZM22.1403 22.1487L19.82 22.5C19.5684 22.538 19.3596 22.3144 19.4011 22.0248L20.3035 11.6239C20.3155 11.3101 20.5556 11.0469 20.8071 11.0089L21.8974 10.8438C22.0651 10.8184 22.2681 10.9295 22.3061 11.1222L22.6112 12.1251C23.1177 11.5664 24.4268 10.1774 26.2999 9.89383C29.375 9.42816 30.7143 11.919 30.4455 14.9086L29.9683 20.4249C29.9548 20.7105 29.7161 21.0017 29.4645 21.0399L27.0324 21.4081C26.7529 21.4504 26.6001 21.2182 26.6136 20.9327L27.1379 15.2393C27.2584 13.7465 26.7076 12.8943 25.5894 13.0637C24.1357 13.2837 23.2662 15.0031 23.2662 15.0031L22.6998 21.5253C22.6642 21.9276 22.5316 22.0895 22.1403 22.1487ZM32.5106 20.9176L34.9745 20.5868C35.2266 20.553 35.4936 20.2605 35.5071 19.9737L36.4122 9.53127C36.4523 9.21237 36.2168 9.01584 35.9648 9.04965L33.5008 9.38039C33.2488 9.41432 33.0084 9.67462 32.9683 9.99365L32.0631 20.4359C32.0496 20.7228 32.2585 20.9514 32.5106 20.9176ZM55.2765 16.9206C54.3505 17.9382 52.9953 18.7435 51.3851 18.9163C48.7202 19.2022 46.8543 17.0493 46.7173 14.3091C46.5389 10.7412 49.0091 7.11865 52.8956 6.70168C55.0886 6.4664 56.5131 7.60488 56.6003 9.3461C56.7458 12.2575 52.6581 13.6718 49.8278 14.0041C49.8032 15.1834 50.3763 16.0402 51.7644 15.8912C52.4305 15.8198 53.2463 15.3878 53.701 14.9947C53.9423 14.7966 54.1893 14.7128 54.3394 14.9262L55.3226 16.1695C55.4714 16.3544 55.4872 16.6683 55.2765 16.9206ZM53.4803 10.0252C53.4603 9.62549 53.1394 9.34432 52.5009 9.41284C51.3904 9.53197 50.3898 10.7298 50.1329 11.7329C51.4641 11.5615 53.526 10.9386 53.4803 10.0252ZM56.9589 19.7994C53.8949 19.9569 41.6923 23.4372 38.2476 25.0507L39.885 21.2346C39.9219 21.1488 39.8424 21.0588 39.7526 21.0846L37.173 21.8207C33.8113 22.7802 27.4346 24.8571 23.8923 26.0233L24.6845 23.3846C24.7092 23.303 24.636 23.2254 24.5529 23.2449L22.4054 23.7498C22.3715 23.7577 20.1605 24.2783 16.3887 25.2182C16.4182 24.9972 16.4437 24.7703 16.464 24.5355L17.4848 12.2845C17.5242 11.965 17.3191 11.7769 17.0699 11.8239L15.9904 12.0278C15.8243 12.0592 15.6117 12.2696 15.5109 12.4873L15.0589 13.4806C14.6426 12.9918 13.4574 12.2227 11.8798 12.5208C8.72467 13.1169 6.33684 16.689 6.52264 20.3139C6.66812 23.1519 8.52698 25.0704 10.9902 24.6051C11.7928 24.4535 12.689 23.9437 13.1727 23.5685L12.9586 26.0809C11.6825 26.4047 10.2988 26.759 8.81966 27.142C7.17784 27.5675 6.02689 28.6852 5.6619 30.2086C5.40551 31.2793 5.56839 32.4236 6.06365 33.3526C6.28022 33.759 6.56027 34.1241 6.89718 34.4236C7.4889 34.7962 8.35601 35.142 9.36235 35.1689C9.62316 35.1761 9.89218 35.1639 10.1692 35.1227C12.7376 34.7399 14.7611 33.3377 15.6814 30.0803L15.7056 30.084L16.1335 28.1367C18.0091 27.6669 19.5531 27.2874 20.7017 27.0079L19.7642 30.1292C19.7385 30.2152 19.8204 30.2946 19.9057 30.2662L22.2375 29.4884C22.3284 29.458 29.8586 26.9487 35.1119 25.3286L32.7774 30.7694C32.7361 30.8659 32.8395 30.9604 32.9318 30.9107L36.1462 29.1833C36.1691 29.171 39.1627 27.8341 43.0015 26.1198C46.6962 24.4698 51.1738 22.4702 54.539 20.9656C55.324 20.6146 56.5232 20.0779 56.9762 19.8751C57.0162 19.8573 57.0027 19.7972 56.9589 19.7994ZM9.6663 19.4929C9.73395 20.8136 10.5026 21.6331 11.665 21.4135C12.7998 21.199 13.4308 20.4271 13.4308 20.4271L13.8104 16.3834C13.6533 16.0443 13.0872 15.3569 12.0354 15.5556C10.6239 15.8223 9.57401 17.6945 9.6663 19.4929ZM12.5396 29.4155L12.551 29.4149L12.6473 29.0181C11.6586 29.2703 10.6151 29.5383 9.51541 29.8231C8.86266 29.9919 8.48407 30.3292 8.35845 30.8533L8.35637 30.8623C8.23552 31.3818 8.56643 31.9007 9.0742 32.0654C9.41234 32.1749 9.81532 32.2337 10.2779 32.165C11.4395 31.9916 12.1475 31.1429 12.5396 29.4155Z" fill="#C76542"/>
<path fill-rule="evenodd" clip-rule="evenodd" d="M110.263 0V16.2273H112.225V11.3359H112.575L117.878 16.2273H120.541L114.14 10.3855L120.354 4.8682H117.668L112.575 9.48139H112.225V0H110.263ZM69.7799 15.8564C70.6676 16.32 71.6643 16.5519 72.7699 16.5519C73.8756 16.5519 74.81 16.351 75.573 15.9491C76.3517 15.5473 76.9668 15.0141 77.4184 14.3496C77.8856 13.685 78.1971 12.9741 78.3528 12.2169L76.4373 11.7996C76.2972 12.665 75.9312 13.3837 75.3394 13.9555C74.7633 14.5273 73.9223 14.8132 72.8166 14.8132C72.0691 14.8132 71.3995 14.6509 70.8078 14.3264C70.216 13.9864 69.7488 13.5073 69.4062 12.8891C69.0636 12.2555 68.8923 11.5137 68.8923 10.6637V10.455C68.8923 9.58957 69.0636 8.84775 69.4062 8.22957C69.7488 7.61138 70.216 7.13229 70.8078 6.79229C71.3995 6.45229 72.0691 6.28229 72.8166 6.28229C73.5486 6.28229 74.1637 6.42138 74.662 6.69956C75.1759 6.96229 75.5653 7.32547 75.83 7.78911C76.1103 8.23729 76.2894 8.73957 76.3673 9.29593L78.2827 8.90184C78.1581 8.12911 77.87 7.41047 77.4184 6.74593C76.9668 6.08138 76.3517 5.5482 75.573 5.14638C74.81 4.74456 73.8756 4.54365 72.7699 4.54365C71.6643 4.54365 70.6676 4.7832 69.7799 5.26229C68.9079 5.72592 68.2149 6.3982 67.701 7.27911C67.1871 8.14457 66.9301 9.18775 66.9301 10.4087V10.6868C66.9301 11.8923 67.1871 12.9355 67.701 13.8164C68.2149 14.6973 68.9079 15.3773 69.7799 15.8564ZM83.6946 15.8332C84.5822 16.3123 85.6022 16.5519 86.7546 16.5519C87.907 16.5519 88.9193 16.3123 89.7913 15.8332C90.679 15.3541 91.372 14.6819 91.8703 13.8164C92.3686 12.9355 92.6178 11.9 92.6178 10.71V10.3855C92.6178 9.21093 92.3686 8.1832 91.8703 7.30229C91.372 6.42138 90.679 5.74138 89.7913 5.26229C88.9193 4.7832 87.907 4.54365 86.7546 4.54365C85.6022 4.54365 84.5822 4.7832 83.6946 5.26229C82.8069 5.74138 82.1139 6.42138 81.6156 7.30229C81.1173 8.1832 80.8681 9.21093 80.8681 10.3855V10.71C80.8681 11.9 81.1173 12.9355 81.6156 13.8164C82.1139 14.6819 82.8069 15.3541 83.6946 15.8332ZM89.5811 13.7005C88.8648 14.4423 87.9226 14.8132 86.7546 14.8132C85.5711 14.8132 84.6212 14.4423 83.9048 13.7005C83.1885 12.9432 82.8303 11.9309 82.8303 10.6637V10.455C82.8303 9.1723 83.1885 8.16002 83.9048 7.4182C84.6212 6.66093 85.5711 6.28229 86.7546 6.28229C87.9382 6.28229 88.8803 6.66093 89.5811 7.4182C90.2975 8.16002 90.6556 9.1723 90.6556 10.455V10.6637C90.6556 11.9309 90.2975 12.9432 89.5811 13.7005ZM101.172 16.5519C100.019 16.5519 98.9993 16.3123 98.1116 15.8332C97.224 15.3541 96.531 14.6819 96.0326 13.8164C95.5343 12.9355 95.2851 11.9 95.2851 10.71V10.3855C95.2851 9.21093 95.5343 8.1832 96.0326 7.30229C96.531 6.42138 97.224 5.74138 98.1116 5.26229C98.9993 4.7832 100.019 4.54365 101.172 4.54365C102.324 4.54365 103.336 4.7832 104.208 5.26229C105.096 5.74138 105.789 6.42138 106.287 7.30229C106.786 8.1832 107.035 9.21093 107.035 10.3855V10.71C107.035 11.9 106.786 12.9355 106.287 13.8164C105.789 14.6819 105.096 15.3541 104.208 15.8332C103.336 16.3123 102.324 16.5519 101.172 16.5519ZM101.172 14.8132C102.34 14.8132 103.282 14.4423 103.998 13.7005C104.714 12.9432 105.073 11.9309 105.073 10.6637V10.455C105.073 9.1723 104.714 8.16002 103.998 7.4182C103.297 6.66093 102.355 6.28229 101.172 6.28229C99.9881 6.28229 99.0382 6.66093 98.3218 7.4182C97.6055 8.16002 97.2473 9.1723 97.2473 10.455V10.6637C97.2473 11.9309 97.6055 12.9432 98.3218 13.7005C99.0382 14.4423 99.9881 14.8132 101.172 14.8132ZM129.278 16.5519C128.11 16.5519 127.199 16.3355 126.545 15.9028C125.907 15.4546 125.439 14.9523 125.144 14.3959H124.793V16.2273H122.878V0H124.84V6.60683H125.19C125.377 6.26683 125.634 5.94229 125.961 5.6332C126.304 5.30865 126.748 5.04592 127.293 4.84501C127.838 4.6441 128.5 4.54365 129.278 4.54365C130.275 4.54365 131.178 4.7832 131.988 5.26229C132.813 5.72592 133.467 6.3982 133.95 7.27911C134.433 8.14457 134.674 9.18002 134.674 10.3855V10.71C134.674 11.9155 134.425 12.9587 133.927 13.8396C133.444 14.7205 132.79 15.3928 131.964 15.8564C131.155 16.32 130.259 16.5519 129.278 16.5519ZM128.764 14.8364C129.917 14.8364 130.851 14.4732 131.567 13.7469C132.299 13.005 132.665 11.9773 132.665 10.6637V10.455C132.665 9.12593 132.299 8.0982 131.567 7.37184C130.851 6.64547 129.917 6.28229 128.764 6.28229C127.612 6.28229 126.67 6.64547 125.938 7.37184C125.206 8.0982 124.84 9.12593 124.84 10.455V10.6637C124.84 11.9773 125.206 13.005 125.938 13.7469C126.67 14.4732 127.612 14.8364 128.764 14.8364ZM140.154 15.8332C141.041 16.3123 142.061 16.5519 143.214 16.5519C144.366 16.5519 145.378 16.3123 146.25 15.8332C147.138 15.3541 147.831 14.6819 148.329 13.8164C148.828 12.9355 149.077 11.9 149.077 10.71V10.3855C149.077 9.21093 148.828 8.1832 148.329 7.30229C147.831 6.42138 147.138 5.74138 146.25 5.26229C145.378 4.7832 144.366 4.54365 143.214 4.54365C142.061 4.54365 141.041 4.7832 140.154 5.26229C139.266 5.74138 138.573 6.42138 138.075 7.30229C137.576 8.1832 137.327 9.21093 137.327 10.3855V10.71C137.327 11.9 137.576 12.9355 138.075 13.8164C138.573 14.6819 139.266 15.3541 140.154 15.8332ZM146.04 13.7005C145.324 14.4423 144.382 14.8132 143.214 14.8132C142.03 14.8132 141.08 14.4423 140.364 13.7005C139.648 12.9432 139.289 11.9309 139.289 10.6637V10.455C139.289 9.1723 139.648 8.16002 140.364 7.4182C141.08 6.66093 142.03 6.28229 143.214 6.28229C144.397 6.28229 145.339 6.66093 146.04 7.4182C146.757 8.16002 147.115 9.1723 147.115 10.455V10.6637C147.115 11.9309 146.757 12.9432 146.04 13.7005ZM157.631 16.5519C156.478 16.5519 155.458 16.3123 154.571 15.8332C153.683 15.3541 152.99 14.6819 152.492 13.8164C151.993 12.9355 151.744 11.9 151.744 10.71V10.3855C151.744 9.21093 151.993 8.1832 152.492 7.30229C152.99 6.42138 153.683 5.74138 154.571 5.26229C155.458 4.7832 156.478 4.54365 157.631 4.54365C158.783 4.54365 159.795 4.7832 160.668 5.26229C161.555 5.74138 162.248 6.42138 162.746 7.30229C163.245 8.1832 163.494 9.21093 163.494 10.3855V10.71C163.494 11.9 163.245 12.9355 162.746 13.8164C162.248 14.6819 161.555 15.3541 160.668 15.8332C159.795 16.3123 158.783 16.5519 157.631 16.5519ZM157.631 14.8132C158.799 14.8132 159.741 14.4423 160.457 13.7005C161.174 12.9432 161.532 11.9309 161.532 10.6637V10.455C161.532 9.1723 161.174 8.16002 160.457 7.4182C159.757 6.66093 158.814 6.28229 157.631 6.28229C156.447 6.28229 155.497 6.66093 154.781 7.4182C154.065 8.16002 153.706 9.1723 153.706 10.455V10.6637C153.706 11.9309 154.065 12.9432 154.781 13.7005C155.497 14.4423 156.447 14.8132 157.631 14.8132ZM166.722 0V16.2273H168.684V11.3359H169.035L174.337 16.2273H177L170.6 10.3855L176.813 4.8682H174.127L169.035 9.48139H168.684V0H166.722ZM68.2841 24.565V28.2477H68.9643V24.565H70.2903V23.96H68.9643V22.9692C68.9643 22.7938 69.0504 22.7061 69.2226 22.7061H70.0922V22.1099H69.0332C68.7921 22.1099 68.6056 22.1771 68.4735 22.3115C68.3473 22.446 68.2841 22.6301 68.2841 22.8639V23.96H66.9926V24.565H68.2841ZM71.8742 28.0986C72.2014 28.2798 72.5774 28.3704 73.0022 28.3704C73.4269 28.3704 73.8 28.2798 74.1215 28.0986C74.4487 27.9174 74.7012 27.6631 74.8792 27.3358C75.0629 27.0026 75.1547 26.6109 75.1547 26.1608V26.0468C75.1547 25.6026 75.0629 25.2138 74.8792 24.8806C74.7012 24.5475 74.4487 24.2902 74.1215 24.109C73.8 23.9278 73.4269 23.8372 73.0022 23.8372C72.5774 23.8372 72.2014 23.9278 71.8742 24.109C71.5528 24.2902 71.3002 24.5475 71.1166 24.8806C70.9386 25.2138 70.8496 25.6026 70.8496 26.0468V26.1608C70.8496 26.6109 70.9386 27.0026 71.1166 27.3358C71.3002 27.6631 71.5528 27.9174 71.8742 28.0986ZM74.0698 27.3182C73.8058 27.6047 73.4499 27.7479 73.0022 27.7479C72.5602 27.7479 72.2043 27.6047 71.9345 27.3182C71.6647 27.026 71.5298 26.6343 71.5298 26.1433V26.0644C71.5298 25.5733 71.6647 25.1846 71.9345 24.8982C72.2043 24.6059 72.5602 24.4598 73.0022 24.4598C73.4499 24.4598 73.8058 24.6059 74.0698 24.8982C74.3396 25.1846 74.4745 25.5733 74.4745 26.0644V26.1433C74.4745 26.6343 74.3396 27.026 74.0698 27.3182ZM76.3787 28.2477V23.96H77.0417V24.4861H77.1623C77.2369 24.299 77.3517 24.1616 77.5067 24.074C77.6616 23.9863 77.8654 23.9424 78.118 23.9424H78.6174V24.5738H78.0749C77.7707 24.5738 77.5239 24.6614 77.3345 24.8368C77.1508 25.0063 77.0589 25.2723 77.0589 25.6347V28.2477H76.3787ZM81.8099 22.1099V28.2477H82.5331V25.7312H84.6168C84.8062 25.7312 84.9468 25.7779 85.0387 25.8715C85.1363 25.965 85.185 26.0994 85.185 26.2748V28.2477H85.8997V26.1871C85.8997 25.9241 85.8308 25.7283 85.693 25.5997C85.561 25.4652 85.3917 25.3951 85.185 25.3892V25.2665C85.4434 25.1846 85.6672 25.0268 85.8566 24.793C86.0461 24.5591 86.1408 24.2406 86.1408 23.8372V23.7408C86.1408 23.4017 86.0604 23.1124 85.8997 22.8727C85.739 22.6272 85.5151 22.4401 85.2281 22.3115C84.9468 22.1771 84.6197 22.1099 84.2465 22.1099H81.8099ZM84.1777 25.0648H82.5331V22.7763H84.1777C84.5795 22.7763 84.8866 22.8756 85.0989 23.0744C85.3113 23.2673 85.4175 23.5391 85.4175 23.8898V23.9512C85.4175 24.3019 85.3085 24.5767 85.0903 24.7754C84.878 24.9683 84.5737 25.0648 84.1777 25.0648ZM89.1961 28.3704C88.7714 28.3704 88.3983 28.2798 88.0768 28.0986C87.7554 27.9116 87.5057 27.6514 87.3278 27.3182C87.1498 26.985 87.0608 26.5992 87.0608 26.1608V26.0556C87.0608 25.6113 87.1498 25.2226 87.3278 24.8894C87.5057 24.5562 87.7525 24.299 88.0682 24.1178C88.3839 23.9307 88.7455 23.8372 89.1531 23.8372C89.5492 23.8372 89.8993 23.9249 90.2035 24.1003C90.5077 24.2698 90.746 24.5153 90.9182 24.8368C91.0904 25.1583 91.1765 25.5354 91.1765 25.9679V26.2836H87.741C87.7583 26.7454 87.9046 27.1078 88.1802 27.3709C88.4557 27.6281 88.8001 27.7567 89.2134 27.7567C89.575 27.7567 89.8534 27.6719 90.0485 27.5024C90.2437 27.3329 90.3929 27.1312 90.4963 26.8974L91.0818 27.1867C90.9957 27.3679 90.8751 27.5491 90.7201 27.7304C90.5709 27.9116 90.3729 28.0636 90.126 28.1863C89.885 28.3091 89.575 28.3704 89.1961 28.3704ZM87.7496 25.7136H90.4877C90.4647 25.3161 90.3298 25.0063 90.083 24.7842C89.8419 24.5621 89.5319 24.451 89.1531 24.451C88.7685 24.451 88.4528 24.5621 88.206 24.7842C87.9592 25.0063 87.807 25.3161 87.7496 25.7136ZM92.8537 28.2126C93.0948 28.3178 93.3617 28.3704 93.6544 28.3704C93.9472 28.3704 94.1854 28.3295 94.3691 28.2477C94.5527 28.1717 94.6962 28.0752 94.7996 27.9583C94.9086 27.8356 94.9947 27.7187 95.0579 27.6076H95.1612V27.6514C95.1612 27.8327 95.2186 27.9788 95.3334 28.0899C95.4482 28.1951 95.6003 28.2477 95.7897 28.2477H96.3838V27.6602H95.9964C95.8356 27.6602 95.7553 27.5725 95.7553 27.3972V25.4594C95.7553 24.945 95.606 24.5475 95.3076 24.2669C95.0091 23.9804 94.5901 23.8372 94.0505 23.8372C93.7003 23.8372 93.399 23.8986 93.1464 24.0214C92.8996 24.1383 92.7016 24.2961 92.5523 24.4948C92.4031 24.6877 92.294 24.904 92.2251 25.1437L92.8623 25.3541C92.9312 25.0736 93.0603 24.8514 93.2497 24.6877C93.4392 24.5182 93.7032 24.4335 94.0419 24.4335C94.3863 24.4335 94.6446 24.5211 94.8168 24.6965C94.9947 24.8719 95.0837 25.1115 95.0837 25.4155V25.7312H93.663C93.3645 25.7312 93.0948 25.7809 92.8537 25.8802C92.6126 25.9738 92.4232 26.117 92.2854 26.3099C92.1477 26.4969 92.0788 26.7366 92.0788 27.0289C92.0788 27.3153 92.1477 27.5579 92.2854 27.7567C92.4232 27.9554 92.6126 28.1074 92.8537 28.2126ZM94.7049 27.4147C94.458 27.6544 94.1337 27.7742 93.7319 27.7742C93.4449 27.7742 93.2096 27.707 93.0259 27.5725C92.8479 27.4381 92.759 27.251 92.759 27.0114C92.759 26.7717 92.8451 26.5934 93.0173 26.4765C93.1952 26.3537 93.4191 26.2924 93.6889 26.2924H95.0837V26.3888C95.0837 26.8272 94.9574 27.1692 94.7049 27.4147ZM99.1349 28.3704C98.7274 28.3704 98.36 28.2828 98.0329 28.1074C97.7114 27.9262 97.456 27.669 97.2666 27.3358C97.0829 27.0026 96.991 26.608 96.991 26.1521V26.0556C96.991 25.5938 97.0829 25.1992 97.2666 24.8719C97.456 24.5387 97.7114 24.2844 98.0329 24.109C98.36 23.9278 98.7274 23.8372 99.1349 23.8372C99.5368 23.8372 99.8783 23.9132 100.16 24.0652C100.447 24.2172 100.67 24.4189 100.831 24.6702C100.998 24.9216 101.104 25.1905 101.15 25.4769L100.487 25.6172C100.458 25.4067 100.389 25.2138 100.28 25.0385C100.177 24.8631 100.03 24.7228 99.841 24.6176C99.6516 24.5124 99.4191 24.4598 99.1436 24.4598C98.8623 24.4598 98.6097 24.5241 98.3859 24.6527C98.1677 24.7813 97.9927 24.9654 97.8607 25.2051C97.7344 25.4447 97.6712 25.7312 97.6712 26.0644V26.1433C97.6712 26.4765 97.7344 26.7629 97.8607 27.0026C97.9927 27.2423 98.1677 27.4264 98.3859 27.555C98.6097 27.6836 98.8623 27.7479 99.1436 27.7479C99.5626 27.7479 99.8812 27.6368 100.099 27.4147C100.323 27.1926 100.461 26.9178 100.513 26.5905L101.184 26.7395C101.121 27.0201 101.006 27.2861 100.84 27.5375C100.673 27.7888 100.447 27.9905 100.16 28.1425C99.8783 28.2945 99.5368 28.3704 99.1349 28.3704ZM103.157 28.046C103.289 28.1805 103.476 28.2477 103.717 28.2477H104.836V27.6514H103.898C103.731 27.6514 103.648 27.5638 103.648 27.3884V24.565H105.026V23.96H103.648V22.4343H102.968V23.96H101.702V24.565H102.968V27.4936C102.968 27.7274 103.031 27.9116 103.157 28.046ZM108.313 28.2477V22.1099H109.716L111.817 27.783H111.929V22.1099H112.644V28.2477H111.24L109.148 22.5658H109.027V28.2477H108.313ZM114.547 28.2126C114.788 28.3178 115.055 28.3704 115.348 28.3704C115.641 28.3704 115.879 28.3295 116.062 28.2477C116.246 28.1717 116.39 28.0752 116.493 27.9583C116.602 27.8356 116.688 27.7187 116.751 27.6076H116.855V27.6514C116.855 27.8327 116.912 27.9788 117.027 28.0899C117.142 28.1951 117.294 28.2477 117.483 28.2477H118.077V27.6602H117.69C117.529 27.6602 117.449 27.5725 117.449 27.3972V25.4594C117.449 24.945 117.299 24.5475 117.001 24.2669C116.702 23.9804 116.283 23.8372 115.744 23.8372C115.394 23.8372 115.092 23.8986 114.84 24.0214C114.593 24.1383 114.395 24.2961 114.246 24.4948C114.096 24.6877 113.987 24.904 113.919 25.1437L114.556 25.3541C114.625 25.0736 114.754 24.8514 114.943 24.6877C115.133 24.5182 115.397 24.4335 115.735 24.4335C116.08 24.4335 116.338 24.5211 116.51 24.6965C116.688 24.8719 116.777 25.1115 116.777 25.4155V25.7312H115.356C115.058 25.7312 114.788 25.7809 114.547 25.8802C114.306 25.9738 114.117 26.117 113.979 26.3099C113.841 26.4969 113.772 26.7366 113.772 27.0289C113.772 27.3153 113.841 27.5579 113.979 27.7567C114.117 27.9554 114.306 28.1074 114.547 28.2126ZM116.398 27.4147C116.151 27.6544 115.827 27.7742 115.425 27.7742C115.138 27.7742 114.903 27.707 114.719 27.5725C114.541 27.4381 114.452 27.251 114.452 27.0114C114.452 26.7717 114.538 26.5934 114.711 26.4765C114.889 26.3537 115.112 26.2924 115.382 26.2924H116.777V26.3888C116.777 26.8272 116.651 27.1692 116.398 27.4147ZM120.281 28.2477C120.04 28.2477 119.854 28.1805 119.721 28.046C119.595 27.9116 119.532 27.7274 119.532 27.4936V24.565H118.266V23.96H119.532V22.4343H120.212V23.96H121.59V24.565H120.212V27.3884C120.212 27.5638 120.295 27.6514 120.462 27.6514H121.4V28.2477H120.281ZM122.692 23.96V28.2477H123.372V23.96H122.692ZM122.657 23.1445C122.761 23.2439 122.887 23.2936 123.036 23.2936C123.185 23.2936 123.309 23.2439 123.406 23.1445C123.504 23.0451 123.553 22.9195 123.553 22.7675C123.553 22.6097 123.504 22.4811 123.406 22.3817C123.309 22.2823 123.185 22.2326 123.036 22.2326C122.887 22.2326 122.761 22.2823 122.657 22.3817C122.56 22.4811 122.511 22.6097 122.511 22.7675C122.511 22.9195 122.56 23.0451 122.657 23.1445ZM125.87 28.2477L124.363 23.96H125.086L126.352 27.7304H126.472L127.738 23.96H128.461L126.955 28.2477H125.87ZM130.076 28.0986C130.398 28.2798 130.771 28.3704 131.196 28.3704C131.574 28.3704 131.884 28.3091 132.125 28.1863C132.372 28.0636 132.57 27.9116 132.72 27.7304C132.875 27.5491 132.995 27.3679 133.081 27.1867L132.496 26.8974C132.392 27.1312 132.243 27.3329 132.048 27.5024C131.853 27.6719 131.574 27.7567 131.213 27.7567C130.8 27.7567 130.455 27.6281 130.18 27.3709C129.904 27.1078 129.758 26.7454 129.74 26.2836H133.176V25.9679C133.176 25.5354 133.09 25.1583 132.918 24.8368C132.745 24.5153 132.507 24.2698 132.203 24.1003C131.899 23.9249 131.549 23.8372 131.153 23.8372C130.745 23.8372 130.383 23.9307 130.068 24.1178C129.752 24.299 129.505 24.5562 129.327 24.8894C129.149 25.2226 129.06 25.6113 129.06 26.0556V26.1608C129.06 26.5992 129.149 26.985 129.327 27.3182C129.505 27.6514 129.755 27.9116 130.076 28.0986ZM132.487 25.7136H129.749C129.806 25.3161 129.959 25.0063 130.205 24.7842C130.452 24.5621 130.768 24.451 131.153 24.451C131.531 24.451 131.841 24.5621 132.082 24.7842C132.329 25.0063 132.464 25.3161 132.487 25.7136Z" fill="#F4F2F1"/>
</svg>
