<svg width="194" height="52" viewBox="0 0 194 52" fill="none" xmlns="http://www.w3.org/2000/svg">
<rect width="194" height="52" fill="#191015"/>
<path fill-rule="evenodd" clip-rule="evenodd" d="M49.8282 19.3721L48.8172 19.4938C48.5643 19.5243 48.383 19.2925 48.3964 19.009L48.5524 17.1019C48.5926 16.7869 48.8057 16.5359 49.0584 16.5055L50.0976 16.3803L50.3584 13.2205C50.4 12.9336 50.64 12.6511 50.8926 12.6207L53.3347 12.2986C53.5875 12.2682 53.7691 12.4999 53.7272 12.7868L53.4681 15.9747L55.4901 15.7312C55.771 15.6974 55.9513 15.9012 55.9109 16.2162L55.755 18.1233C55.7133 18.41 55.5017 18.6891 55.2208 18.7231L53.1988 18.9664L52.7812 23.4698C52.7094 24.2677 53.1084 24.3322 53.4454 24.2917C53.772 24.2524 54.1294 24.0538 54.3987 23.9041C54.4537 23.8736 54.5049 23.8451 54.5515 23.8204C54.8265 23.6745 55.0305 23.7909 55.101 24.0643L55.4773 25.8791C55.548 26.1525 55.3912 26.3968 55.0908 26.602C54.8733 26.7692 53.2747 27.5534 52.0107 27.7056C50.0729 27.9389 49.189 26.6923 49.3807 24.3864L49.8282 19.3721ZM44.8332 15.8584C45.7076 15.8584 46.4166 15.1495 46.4166 14.2751C46.4166 13.4006 45.7076 12.6917 44.8332 12.6917C43.9587 12.6917 43.2499 13.4006 43.2499 14.2751C43.2499 15.1495 43.9587 15.8584 44.8332 15.8584ZM14.6675 17.0494L12.1396 17.372C11.8165 17.4134 11.5665 17.673 11.5399 17.9949L10.0052 37.177C9.96422 37.4755 10.172 37.6814 10.4221 37.6175L13.1456 36.9213C13.3959 36.8574 13.6328 36.5377 13.6459 36.2465L15.1444 17.5009C15.1665 17.2342 14.9351 17.0152 14.6675 17.0494ZM32.1403 30.1487L29.82 30.5C29.5684 30.538 29.3596 30.3144 29.4011 30.0248L30.3035 19.6239C30.3155 19.3101 30.5556 19.0469 30.8071 19.0089L31.8974 18.8438C32.0651 18.8184 32.2681 18.9295 32.3061 19.1222L32.6112 20.1251C33.1177 19.5664 34.4268 18.1774 36.2999 17.8938C39.375 17.4282 40.7143 19.919 40.4455 22.9086L39.9683 28.4249C39.9548 28.7105 39.7161 29.0017 39.4645 29.0399L37.0324 29.4081C36.7529 29.4504 36.6001 29.2182 36.6136 28.9327L37.1379 23.2393C37.2584 21.7465 36.7076 20.8943 35.5894 21.0637C34.1357 21.2837 33.2662 23.0031 33.2662 23.0031L32.6998 29.5253C32.6642 29.9276 32.5316 30.0895 32.1403 30.1487ZM42.5106 28.9176L44.9745 28.5868C45.2266 28.553 45.4936 28.2605 45.5071 27.9737L46.4122 17.5313C46.4523 17.2124 46.2168 17.0158 45.9648 17.0496L43.5008 17.3804C43.2488 17.4143 43.0084 17.6746 42.9683 17.9937L42.0631 28.4359C42.0496 28.7228 42.2585 28.9514 42.5106 28.9176ZM65.2765 24.9206C64.3505 25.9382 62.9953 26.7435 61.3851 26.9163C58.7202 27.2022 56.8543 25.0493 56.7173 22.3091C56.5389 18.7412 59.0091 15.1186 62.8956 14.7017C65.0886 14.4664 66.5131 15.6049 66.6003 17.3461C66.7458 20.2575 62.6581 21.6718 59.8278 22.0041C59.8032 23.1834 60.3763 24.0402 61.7644 23.8912C62.4305 23.8198 63.2463 23.3878 63.701 22.9947C63.9423 22.7966 64.1893 22.7128 64.3394 22.9262L65.3226 24.1695C65.4714 24.3544 65.4872 24.6683 65.2765 24.9206ZM63.4803 18.0252C63.4603 17.6255 63.1394 17.3443 62.5009 17.4128C61.3904 17.532 60.3898 18.7298 60.1329 19.7329C61.4641 19.5615 63.526 18.9386 63.4803 18.0252ZM66.9589 27.7994C63.8949 27.9569 51.6923 31.4372 48.2476 33.0507L49.885 29.2346C49.9219 29.1488 49.8424 29.0588 49.7526 29.0846L47.173 29.8207C43.8113 30.7802 37.4346 32.8571 33.8923 34.0233L34.6845 31.3846C34.7092 31.303 34.636 31.2254 34.5529 31.2449L32.4054 31.7498C32.3715 31.7577 30.1605 32.2783 26.3887 33.2182C26.4182 32.9972 26.4437 32.7703 26.464 32.5355L27.4848 20.2845C27.5242 19.965 27.3191 19.7769 27.0699 19.8239L25.9904 20.0278C25.8243 20.0592 25.6117 20.2696 25.5109 20.4873L25.0589 21.4806C24.6426 20.9918 23.4574 20.2227 21.8798 20.5208C18.7247 21.1169 16.3368 24.689 16.5226 28.3139C16.6681 31.1519 18.527 33.0704 20.9902 32.6051C21.7928 32.4535 22.689 31.9437 23.1727 31.5685L22.9586 34.0809C21.6825 34.4047 20.2988 34.759 18.8197 35.142C17.1778 35.5675 16.0269 36.6852 15.6619 38.2086C15.4055 39.2793 15.5684 40.4236 16.0637 41.3526C16.2802 41.759 16.5603 42.1241 16.8972 42.4236C17.4889 42.7962 18.356 43.142 19.3623 43.1689C19.6232 43.1761 19.8922 43.1639 20.1692 43.1227C22.7376 42.7399 24.7611 41.3377 25.6814 38.0803L25.7056 38.084L26.1335 36.1367C28.0091 35.6669 29.5531 35.2874 30.7017 35.0079L29.7642 38.1292C29.7385 38.2152 29.8204 38.2946 29.9057 38.2662L32.2375 37.4884C32.3284 37.458 39.8586 34.9487 45.1119 33.3286L42.7774 38.7694C42.7361 38.8659 42.8395 38.9604 42.9318 38.9107L46.1462 37.1833C46.1691 37.171 49.1627 35.8341 53.0015 34.1198C56.6962 32.4698 61.1738 30.4702 64.539 28.9656C65.324 28.6146 66.5232 28.0779 66.9762 27.8751C67.0162 27.8573 67.0027 27.7972 66.9589 27.7994ZM19.6663 27.4929C19.7339 28.8136 20.5026 29.6331 21.665 29.4135C22.7998 29.199 23.4308 28.4271 23.4308 28.4271L23.8104 24.3834C23.6533 24.0443 23.0872 23.3569 22.0354 23.5556C20.6239 23.8223 19.574 25.6945 19.6663 27.4929ZM22.5396 37.4155L22.551 37.4149L22.6473 37.0181C21.6586 37.2703 20.6151 37.5383 19.5154 37.8231C18.8627 37.9919 18.4841 38.3292 18.3584 38.8533L18.3564 38.8623C18.2355 39.3818 18.5664 39.9007 19.0742 40.0654C19.4123 40.1749 19.8153 40.2337 20.2779 40.165C21.4395 39.9916 22.1475 39.1429 22.5396 37.4155Z" fill="#C76542"/>
<path fill-rule="evenodd" clip-rule="evenodd" d="M120.263 8V24.2273H122.225V19.3359H122.575L127.878 24.2273H130.541L124.14 18.3855L130.354 12.8682H127.668L122.575 17.4814H122.225V8H120.263ZM79.7799 23.8564C80.6676 24.32 81.6643 24.5519 82.7699 24.5519C83.8756 24.5519 84.81 24.351 85.573 23.9491C86.3517 23.5473 86.9668 23.0141 87.4184 22.3496C87.8856 21.685 88.1971 20.9741 88.3528 20.2169L86.4373 19.7996C86.2972 20.665 85.9312 21.3837 85.3394 21.9555C84.7633 22.5273 83.9223 22.8132 82.8166 22.8132C82.0691 22.8132 81.3995 22.6509 80.8078 22.3264C80.216 21.9864 79.7488 21.5073 79.4062 20.8891C79.0636 20.2555 78.8923 19.5137 78.8923 18.6637V18.455C78.8923 17.5896 79.0636 16.8478 79.4062 16.2296C79.7488 15.6114 80.216 15.1323 80.8078 14.7923C81.3995 14.4523 82.0691 14.2823 82.8166 14.2823C83.5486 14.2823 84.1637 14.4214 84.662 14.6996C85.1759 14.9623 85.5653 15.3255 85.83 15.7891C86.1103 16.2373 86.2894 16.7396 86.3673 17.2959L88.2827 16.9018C88.1581 16.1291 87.87 15.4105 87.4184 14.7459C86.9668 14.0814 86.3517 13.5482 85.573 13.1464C84.81 12.7446 83.8756 12.5436 82.7699 12.5436C81.6643 12.5436 80.6676 12.7832 79.7799 13.2623C78.9079 13.7259 78.2149 14.3982 77.701 15.2791C77.1871 16.1446 76.9301 17.1878 76.9301 18.4087V18.6868C76.9301 19.8923 77.1871 20.9355 77.701 21.8164C78.2149 22.6973 78.9079 23.3773 79.7799 23.8564ZM93.6946 23.8332C94.5822 24.3123 95.6022 24.5519 96.7546 24.5519C97.907 24.5519 98.9193 24.3123 99.7913 23.8332C100.679 23.3541 101.372 22.6819 101.87 21.8164C102.369 20.9355 102.618 19.9 102.618 18.71V18.3855C102.618 17.2109 102.369 16.1832 101.87 15.3023C101.372 14.4214 100.679 13.7414 99.7913 13.2623C98.9193 12.7832 97.907 12.5436 96.7546 12.5436C95.6022 12.5436 94.5822 12.7832 93.6946 13.2623C92.8069 13.7414 92.1139 14.4214 91.6156 15.3023C91.1173 16.1832 90.8681 17.2109 90.8681 18.3855V18.71C90.8681 19.9 91.1173 20.9355 91.6156 21.8164C92.1139 22.6819 92.8069 23.3541 93.6946 23.8332ZM99.5811 21.7005C98.8648 22.4423 97.9226 22.8132 96.7546 22.8132C95.5711 22.8132 94.6212 22.4423 93.9048 21.7005C93.1885 20.9432 92.8303 19.9309 92.8303 18.6637V18.455C92.8303 17.1723 93.1885 16.16 93.9048 15.4182C94.6212 14.6609 95.5711 14.2823 96.7546 14.2823C97.9382 14.2823 98.8803 14.6609 99.5811 15.4182C100.297 16.16 100.656 17.1723 100.656 18.455V18.6637C100.656 19.9309 100.297 20.9432 99.5811 21.7005ZM111.172 24.5519C110.019 24.5519 108.999 24.3123 108.112 23.8332C107.224 23.3541 106.531 22.6819 106.033 21.8164C105.534 20.9355 105.285 19.9 105.285 18.71V18.3855C105.285 17.2109 105.534 16.1832 106.033 15.3023C106.531 14.4214 107.224 13.7414 108.112 13.2623C108.999 12.7832 110.019 12.5436 111.172 12.5436C112.324 12.5436 113.336 12.7832 114.208 13.2623C115.096 13.7414 115.789 14.4214 116.287 15.3023C116.786 16.1832 117.035 17.2109 117.035 18.3855V18.71C117.035 19.9 116.786 20.9355 116.287 21.8164C115.789 22.6819 115.096 23.3541 114.208 23.8332C113.336 24.3123 112.324 24.5519 111.172 24.5519ZM111.172 22.8132C112.34 22.8132 113.282 22.4423 113.998 21.7005C114.714 20.9432 115.073 19.9309 115.073 18.6637V18.455C115.073 17.1723 114.714 16.16 113.998 15.4182C113.297 14.6609 112.355 14.2823 111.172 14.2823C109.988 14.2823 109.038 14.6609 108.322 15.4182C107.605 16.16 107.247 17.1723 107.247 18.455V18.6637C107.247 19.9309 107.605 20.9432 108.322 21.7005C109.038 22.4423 109.988 22.8132 111.172 22.8132ZM139.278 24.5519C138.11 24.5519 137.199 24.3355 136.545 23.9028C135.907 23.4546 135.439 22.9523 135.144 22.3959H134.793V24.2273H132.878V8H134.84V14.6068H135.19C135.377 14.2668 135.634 13.9423 135.961 13.6332C136.304 13.3087 136.748 13.0459 137.293 12.845C137.838 12.6441 138.5 12.5436 139.278 12.5436C140.275 12.5436 141.178 12.7832 141.988 13.2623C142.813 13.7259 143.467 14.3982 143.95 15.2791C144.433 16.1446 144.674 17.18 144.674 18.3855V18.71C144.674 19.9155 144.425 20.9587 143.927 21.8396C143.444 22.7205 142.79 23.3928 141.964 23.8564C141.155 24.32 140.259 24.5519 139.278 24.5519ZM138.764 22.8364C139.917 22.8364 140.851 22.4732 141.567 21.7469C142.299 21.005 142.665 19.9773 142.665 18.6637V18.455C142.665 17.1259 142.299 16.0982 141.567 15.3718C140.851 14.6455 139.917 14.2823 138.764 14.2823C137.612 14.2823 136.67 14.6455 135.938 15.3718C135.206 16.0982 134.84 17.1259 134.84 18.455V18.6637C134.84 19.9773 135.206 21.005 135.938 21.7469C136.67 22.4732 137.612 22.8364 138.764 22.8364ZM150.154 23.8332C151.041 24.3123 152.061 24.5519 153.214 24.5519C154.366 24.5519 155.378 24.3123 156.25 23.8332C157.138 23.3541 157.831 22.6819 158.329 21.8164C158.828 20.9355 159.077 19.9 159.077 18.71V18.3855C159.077 17.2109 158.828 16.1832 158.329 15.3023C157.831 14.4214 157.138 13.7414 156.25 13.2623C155.378 12.7832 154.366 12.5436 153.214 12.5436C152.061 12.5436 151.041 12.7832 150.154 13.2623C149.266 13.7414 148.573 14.4214 148.075 15.3023C147.576 16.1832 147.327 17.2109 147.327 18.3855V18.71C147.327 19.9 147.576 20.9355 148.075 21.8164C148.573 22.6819 149.266 23.3541 150.154 23.8332ZM156.04 21.7005C155.324 22.4423 154.382 22.8132 153.214 22.8132C152.03 22.8132 151.08 22.4423 150.364 21.7005C149.648 20.9432 149.289 19.9309 149.289 18.6637V18.455C149.289 17.1723 149.648 16.16 150.364 15.4182C151.08 14.6609 152.03 14.2823 153.214 14.2823C154.397 14.2823 155.339 14.6609 156.04 15.4182C156.757 16.16 157.115 17.1723 157.115 18.455V18.6637C157.115 19.9309 156.757 20.9432 156.04 21.7005ZM167.631 24.5519C166.478 24.5519 165.458 24.3123 164.571 23.8332C163.683 23.3541 162.99 22.6819 162.492 21.8164C161.993 20.9355 161.744 19.9 161.744 18.71V18.3855C161.744 17.2109 161.993 16.1832 162.492 15.3023C162.99 14.4214 163.683 13.7414 164.571 13.2623C165.458 12.7832 166.478 12.5436 167.631 12.5436C168.783 12.5436 169.795 12.7832 170.668 13.2623C171.555 13.7414 172.248 14.4214 172.746 15.3023C173.245 16.1832 173.494 17.2109 173.494 18.3855V18.71C173.494 19.9 173.245 20.9355 172.746 21.8164C172.248 22.6819 171.555 23.3541 170.668 23.8332C169.795 24.3123 168.783 24.5519 167.631 24.5519ZM167.631 22.8132C168.799 22.8132 169.741 22.4423 170.457 21.7005C171.174 20.9432 171.532 19.9309 171.532 18.6637V18.455C171.532 17.1723 171.174 16.16 170.457 15.4182C169.757 14.6609 168.814 14.2823 167.631 14.2823C166.447 14.2823 165.497 14.6609 164.781 15.4182C164.065 16.16 163.706 17.1723 163.706 18.455V18.6637C163.706 19.9309 164.065 20.9432 164.781 21.7005C165.497 22.4423 166.447 22.8132 167.631 22.8132ZM176.722 8V24.2273H178.684V19.3359H179.035L184.337 24.2273H187L180.6 18.3855L186.813 12.8682H184.127L179.035 17.4814H178.684V8H176.722ZM78.2841 32.565V36.2477H78.9643V32.565H80.2903V31.96H78.9643V30.9692C78.9643 30.7938 79.0504 30.7061 79.2226 30.7061H80.0922V30.1099H79.0332C78.7921 30.1099 78.6056 30.1771 78.4735 30.3115C78.3473 30.446 78.2841 30.6301 78.2841 30.8639V31.96H76.9926V32.565H78.2841ZM81.8742 36.0986C82.2014 36.2798 82.5774 36.3704 83.0022 36.3704C83.4269 36.3704 83.8 36.2798 84.1215 36.0986C84.4487 35.9174 84.7012 35.6631 84.8792 35.3358C85.0629 35.0026 85.1547 34.6109 85.1547 34.1608V34.0468C85.1547 33.6026 85.0629 33.2138 84.8792 32.8806C84.7012 32.5475 84.4487 32.2902 84.1215 32.109C83.8 31.9278 83.4269 31.8372 83.0022 31.8372C82.5774 31.8372 82.2014 31.9278 81.8742 32.109C81.5528 32.2902 81.3002 32.5475 81.1166 32.8806C80.9386 33.2138 80.8496 33.6026 80.8496 34.0468V34.1608C80.8496 34.6109 80.9386 35.0026 81.1166 35.3358C81.3002 35.6631 81.5528 35.9174 81.8742 36.0986ZM84.0698 35.3182C83.8058 35.6047 83.4499 35.7479 83.0022 35.7479C82.5602 35.7479 82.2043 35.6047 81.9345 35.3182C81.6647 35.026 81.5298 34.6343 81.5298 34.1433V34.0644C81.5298 33.5733 81.6647 33.1846 81.9345 32.8982C82.2043 32.6059 82.5602 32.4598 83.0022 32.4598C83.4499 32.4598 83.8058 32.6059 84.0698 32.8982C84.3396 33.1846 84.4745 33.5733 84.4745 34.0644V34.1433C84.4745 34.6343 84.3396 35.026 84.0698 35.3182ZM86.3787 36.2477V31.96H87.0417V32.4861H87.1623C87.2369 32.299 87.3517 32.1616 87.5067 32.074C87.6616 31.9863 87.8654 31.9424 88.118 31.9424H88.6174V32.5738H88.0749C87.7707 32.5738 87.5239 32.6614 87.3345 32.8368C87.1508 33.0063 87.0589 33.2723 87.0589 33.6347V36.2477H86.3787ZM91.8099 30.1099V36.2477H92.5331V33.7312H94.6168C94.8062 33.7312 94.9468 33.7779 95.0387 33.8715C95.1363 33.965 95.185 34.0994 95.185 34.2748V36.2477H95.8997V34.1871C95.8997 33.9241 95.8308 33.7283 95.693 33.5997C95.561 33.4652 95.3917 33.3951 95.185 33.3892V33.2665C95.4434 33.1846 95.6672 33.0268 95.8566 32.793C96.0461 32.5591 96.1408 32.2406 96.1408 31.8372V31.7408C96.1408 31.4017 96.0604 31.1124 95.8997 30.8727C95.739 30.6272 95.5151 30.4401 95.2281 30.3115C94.9468 30.1771 94.6197 30.1099 94.2465 30.1099H91.8099ZM94.1777 33.0648H92.5331V30.7763H94.1777C94.5795 30.7763 94.8866 30.8756 95.0989 31.0744C95.3113 31.2673 95.4175 31.5391 95.4175 31.8898V31.9512C95.4175 32.3019 95.3085 32.5767 95.0903 32.7754C94.878 32.9683 94.5737 33.0648 94.1777 33.0648ZM99.1961 36.3704C98.7714 36.3704 98.3983 36.2798 98.0768 36.0986C97.7554 35.9116 97.5057 35.6514 97.3278 35.3182C97.1498 34.985 97.0608 34.5992 97.0608 34.1608V34.0556C97.0608 33.6113 97.1498 33.2226 97.3278 32.8894C97.5057 32.5562 97.7525 32.299 98.0682 32.1178C98.3839 31.9307 98.7455 31.8372 99.1531 31.8372C99.5492 31.8372 99.8993 31.9249 100.204 32.1003C100.508 32.2698 100.746 32.5153 100.918 32.8368C101.09 33.1583 101.176 33.5354 101.176 33.9679V34.2836H97.741C97.7583 34.7454 97.9046 35.1078 98.1802 35.3709C98.4557 35.6281 98.8001 35.7567 99.2134 35.7567C99.575 35.7567 99.8534 35.6719 100.049 35.5024C100.244 35.3329 100.393 35.1312 100.496 34.8974L101.082 35.1867C100.996 35.3679 100.875 35.5491 100.72 35.7304C100.571 35.9116 100.373 36.0636 100.126 36.1863C99.885 36.3091 99.575 36.3704 99.1961 36.3704ZM97.7496 33.7136H100.488C100.465 33.3161 100.33 33.0063 100.083 32.7842C99.8419 32.5621 99.5319 32.451 99.1531 32.451C98.7685 32.451 98.4528 32.5621 98.206 32.7842C97.9592 33.0063 97.807 33.3161 97.7496 33.7136ZM102.854 36.2126C103.095 36.3178 103.362 36.3704 103.654 36.3704C103.947 36.3704 104.185 36.3295 104.369 36.2477C104.553 36.1717 104.696 36.0752 104.8 35.9583C104.909 35.8356 104.995 35.7187 105.058 35.6076H105.161V35.6514C105.161 35.8327 105.219 35.9788 105.333 36.0899C105.448 36.1951 105.6 36.2477 105.79 36.2477H106.384V35.6602H105.996C105.836 35.6602 105.755 35.5725 105.755 35.3972V33.4594C105.755 32.945 105.606 32.5475 105.308 32.2669C105.009 31.9804 104.59 31.8372 104.05 31.8372C103.7 31.8372 103.399 31.8986 103.146 32.0214C102.9 32.1383 102.702 32.2961 102.552 32.4948C102.403 32.6877 102.294 32.904 102.225 33.1437L102.862 33.3541C102.931 33.0736 103.06 32.8514 103.25 32.6877C103.439 32.5182 103.703 32.4335 104.042 32.4335C104.386 32.4335 104.645 32.5211 104.817 32.6965C104.995 32.8719 105.084 33.1115 105.084 33.4155V33.7312H103.663C103.365 33.7312 103.095 33.7809 102.854 33.8802C102.613 33.9738 102.423 34.117 102.285 34.3099C102.148 34.4969 102.079 34.7366 102.079 35.0289C102.079 35.3153 102.148 35.5579 102.285 35.7567C102.423 35.9554 102.613 36.1074 102.854 36.2126ZM104.705 35.4147C104.458 35.6544 104.134 35.7742 103.732 35.7742C103.445 35.7742 103.21 35.707 103.026 35.5725C102.848 35.4381 102.759 35.251 102.759 35.0114C102.759 34.7717 102.845 34.5934 103.017 34.4765C103.195 34.3537 103.419 34.2924 103.689 34.2924H105.084V34.3888C105.084 34.8272 104.957 35.1692 104.705 35.4147ZM109.135 36.3704C108.727 36.3704 108.36 36.2828 108.033 36.1074C107.711 35.9262 107.456 35.669 107.267 35.3358C107.083 35.0026 106.991 34.608 106.991 34.1521V34.0556C106.991 33.5938 107.083 33.1992 107.267 32.8719C107.456 32.5387 107.711 32.2844 108.033 32.109C108.36 31.9278 108.727 31.8372 109.135 31.8372C109.537 31.8372 109.878 31.9132 110.16 32.0652C110.447 32.2172 110.67 32.4189 110.831 32.6702C110.998 32.9216 111.104 33.1905 111.15 33.4769L110.487 33.6172C110.458 33.4067 110.389 33.2138 110.28 33.0385C110.177 32.8631 110.03 32.7228 109.841 32.6176C109.652 32.5124 109.419 32.4598 109.144 32.4598C108.862 32.4598 108.61 32.5241 108.386 32.6527C108.168 32.7813 107.993 32.9654 107.861 33.2051C107.734 33.4447 107.671 33.7312 107.671 34.0644V34.1433C107.671 34.4765 107.734 34.7629 107.861 35.0026C107.993 35.2423 108.168 35.4264 108.386 35.555C108.61 35.6836 108.862 35.7479 109.144 35.7479C109.563 35.7479 109.881 35.6368 110.099 35.4147C110.323 35.1926 110.461 34.9178 110.513 34.5905L111.184 34.7395C111.121 35.0201 111.006 35.2861 110.84 35.5375C110.673 35.7888 110.447 35.9905 110.16 36.1425C109.878 36.2945 109.537 36.3704 109.135 36.3704ZM113.157 36.046C113.289 36.1805 113.476 36.2477 113.717 36.2477H114.836V35.6514H113.898C113.731 35.6514 113.648 35.5638 113.648 35.3884V32.565H115.026V31.96H113.648V30.4343H112.968V31.96H111.702V32.565H112.968V35.4936C112.968 35.7274 113.031 35.9116 113.157 36.046ZM118.313 36.2477V30.1099H119.716L121.817 35.783H121.929V30.1099H122.644V36.2477H121.24L119.148 30.5658H119.027V36.2477H118.313ZM124.547 36.2126C124.788 36.3178 125.055 36.3704 125.348 36.3704C125.641 36.3704 125.879 36.3295 126.062 36.2477C126.246 36.1717 126.39 36.0752 126.493 35.9583C126.602 35.8356 126.688 35.7187 126.751 35.6076H126.855V35.6514C126.855 35.8327 126.912 35.9788 127.027 36.0899C127.142 36.1951 127.294 36.2477 127.483 36.2477H128.077V35.6602H127.69C127.529 35.6602 127.449 35.5725 127.449 35.3972V33.4594C127.449 32.945 127.299 32.5475 127.001 32.2669C126.702 31.9804 126.283 31.8372 125.744 31.8372C125.394 31.8372 125.092 31.8986 124.84 32.0214C124.593 32.1383 124.395 32.2961 124.246 32.4948C124.096 32.6877 123.987 32.904 123.919 33.1437L124.556 33.3541C124.625 33.0736 124.754 32.8514 124.943 32.6877C125.133 32.5182 125.397 32.4335 125.735 32.4335C126.08 32.4335 126.338 32.5211 126.51 32.6965C126.688 32.8719 126.777 33.1115 126.777 33.4155V33.7312H125.356C125.058 33.7312 124.788 33.7809 124.547 33.8802C124.306 33.9738 124.117 34.117 123.979 34.3099C123.841 34.4969 123.772 34.7366 123.772 35.0289C123.772 35.3153 123.841 35.5579 123.979 35.7567C124.117 35.9554 124.306 36.1074 124.547 36.2126ZM126.398 35.4147C126.151 35.6544 125.827 35.7742 125.425 35.7742C125.138 35.7742 124.903 35.707 124.719 35.5725C124.541 35.4381 124.452 35.251 124.452 35.0114C124.452 34.7717 124.538 34.5934 124.711 34.4765C124.889 34.3537 125.112 34.2924 125.382 34.2924H126.777V34.3888C126.777 34.8272 126.651 35.1692 126.398 35.4147ZM130.281 36.2477C130.04 36.2477 129.854 36.1805 129.721 36.046C129.595 35.9116 129.532 35.7274 129.532 35.4936V32.565H128.266V31.96H129.532V30.4343H130.212V31.96H131.59V32.565H130.212V35.3884C130.212 35.5638 130.295 35.6514 130.462 35.6514H131.4V36.2477H130.281ZM132.692 31.96V36.2477H133.372V31.96H132.692ZM132.657 31.1445C132.761 31.2439 132.887 31.2936 133.036 31.2936C133.185 31.2936 133.309 31.2439 133.406 31.1445C133.504 31.0451 133.553 30.9195 133.553 30.7675C133.553 30.6097 133.504 30.4811 133.406 30.3817C133.309 30.2823 133.185 30.2326 133.036 30.2326C132.887 30.2326 132.761 30.2823 132.657 30.3817C132.56 30.4811 132.511 30.6097 132.511 30.7675C132.511 30.9195 132.56 31.0451 132.657 31.1445ZM135.87 36.2477L134.363 31.96H135.086L136.352 35.7304H136.472L137.738 31.96H138.461L136.955 36.2477H135.87ZM140.076 36.0986C140.398 36.2798 140.771 36.3704 141.196 36.3704C141.574 36.3704 141.884 36.3091 142.125 36.1863C142.372 36.0636 142.57 35.9116 142.72 35.7304C142.875 35.5491 142.995 35.3679 143.081 35.1867L142.496 34.8974C142.392 35.1312 142.243 35.3329 142.048 35.5024C141.853 35.6719 141.574 35.7567 141.213 35.7567C140.8 35.7567 140.455 35.6281 140.18 35.3709C139.904 35.1078 139.758 34.7454 139.74 34.2836H143.176V33.9679C143.176 33.5354 143.09 33.1583 142.918 32.8368C142.745 32.5153 142.507 32.2698 142.203 32.1003C141.899 31.9249 141.549 31.8372 141.153 31.8372C140.745 31.8372 140.383 31.9307 140.068 32.1178C139.752 32.299 139.505 32.5562 139.327 32.8894C139.149 33.2226 139.06 33.6113 139.06 34.0556V34.1608C139.06 34.5992 139.149 34.985 139.327 35.3182C139.505 35.6514 139.755 35.9116 140.076 36.0986ZM142.487 33.7136H139.749C139.806 33.3161 139.959 33.0063 140.205 32.7842C140.452 32.5621 140.768 32.451 141.153 32.451C141.531 32.451 141.841 32.5621 142.082 32.7842C142.329 33.0063 142.464 33.3161 142.487 33.7136Z" fill="#F4F2F1"/>
</svg>
