<svg width="334" height="506" viewBox="0 0 334 506" fill="none" xmlns="http://www.w3.org/2000/svg">
<rect width="119.394" height="34.0045" rx="8" transform="matrix(0 1 1 0 43.0724 257.534)" fill="#BCC0D6"/>
<rect width="119.394" height="34.0045" rx="8" transform="matrix(0 1 1 0 171.534 129.072)" fill="#BCC0D6"/>
<rect width="119.394" height="34.0045" rx="8" transform="matrix(0 1 1 0 128.462 257.534)" fill="#9196B9"/>
<rect width="119.394" height="34.0045" rx="8" transform="matrix(0 1 1 0 256.923 129.072)" fill="#9196B9"/>
<rect width="119.394" height="34.0045" rx="8" transform="matrix(0 1 1 0 0 0.610901)" fill="#626894"/>
<rect width="119.394" height="34.0045" rx="8" transform="matrix(0 1 1 0 299.995 385.995)" fill="#626894"/>
<rect width="33.7293" height="33.8995" rx="8" transform="matrix(0 1 1 0 0.28125 214.737)" fill="#626894"/>
<rect width="33.7293" height="33.8995" rx="8" transform="matrix(0 1 1 0 0.28125 171.861)" fill="#626894"/>
<rect width="33.7293" height="33.8995" rx="8" transform="matrix(0 1 1 0 0.28125 128.984)" fill="#626894"/>
<rect width="33.7293" height="33.8995" rx="8" transform="matrix(0 1 1 0 299.819 343.286)" fill="#626894"/>
<rect width="33.7293" height="33.8995" rx="8" transform="matrix(0 1 1 0 299.819 300.41)" fill="#626894"/>
<rect width="33.7293" height="33.8995" rx="8" transform="matrix(0 1 1 0 299.819 257.534)" fill="#626894"/>
<rect width="119.394" height="33.2489" rx="8" transform="matrix(0 1 1 0 86.1448 257.534)" fill="#DCDDE9"/>
<rect width="119.394" height="33.2489" rx="8" transform="matrix(0 1 1 0 214.606 129.072)" fill="#DCDDE9"/>
<rect width="119.482" height="33.8995" rx="8" transform="matrix(1 0 0 -1 43.0724 248.554)" fill="#9196B9"/>
<rect width="119.482" height="33.8995" rx="8" transform="matrix(1 0 0 -1 43.0724 162.972)" fill="#BCC0D6"/>
<rect width="119.482" height="33.8995" rx="8" transform="matrix(1 0 0 -1 43.0724 205.763)" fill="#DCDDE9"/>
<rect width="119.482" height="33.8995" rx="8" transform="matrix(1 0 0 -1 171.446 376.928)" fill="#9196B9"/>
<rect width="119.482" height="33.8995" rx="8" transform="matrix(1 0 0 -1 171.446 291.345)" fill="#BCC0D6"/>
<rect width="119.482" height="33.8995" rx="8" transform="matrix(1 0 0 -1 171.446 334.136)" fill="#DCDDE9"/>
</svg>
