<svg width="295" height="446" viewBox="0 0 295 446" fill="none" xmlns="http://www.w3.org/2000/svg">
<rect width="105.202" height="29.9627" rx="8" transform="matrix(0 1 1 0 37.9521 226.995)" fill="#BCC0D6"/>
<rect width="105.202" height="29.9627" rx="8" transform="matrix(0 1 1 0 151.144 113.802)" fill="#BCC0D6"/>
<rect width="105.202" height="29.9627" rx="8" transform="matrix(0 1 1 0 113.192 226.995)" fill="#9196B9"/>
<rect width="105.202" height="29.9627" rx="8" transform="matrix(0 1 1 0 226.385 113.802)" fill="#9196B9"/>
<rect width="105.202" height="29.9627" rx="8" transform="matrix(0 1 1 0 0 0.609985)" fill="#41476E"/>
<rect width="105.202" height="29.9627" rx="8" transform="matrix(0 1 1 0 264.338 340.188)" fill="#41476E"/>
<rect width="29.7202" height="29.8702" rx="8" transform="matrix(0 1 1 0 0.247559 189.285)" fill="#41476E"/>
<rect width="29.7202" height="29.8702" rx="8" transform="matrix(0 1 1 0 0.247559 151.505)" fill="#41476E"/>
<rect width="29.7202" height="29.8702" rx="8" transform="matrix(0 1 1 0 0.247559 113.725)" fill="#41476E"/>
<rect width="29.7202" height="29.8702" rx="8" transform="matrix(0 1 1 0 264.184 302.555)" fill="#41476E"/>
<rect width="29.7202" height="29.8702" rx="8" transform="matrix(0 1 1 0 264.184 264.775)" fill="#41476E"/>
<rect width="29.7202" height="29.8702" rx="8" transform="matrix(0 1 1 0 264.184 226.995)" fill="#41476E"/>
<rect width="105.202" height="29.2969" rx="8" transform="matrix(0 1 1 0 75.9062 226.995)" fill="#626894"/>
<rect width="105.202" height="29.2969" rx="8" transform="matrix(0 1 1 0 189.098 113.802)" fill="#626894"/>
<rect width="105.28" height="29.8702" rx="8" transform="matrix(1 0 0 -1 37.9521 219.083)" fill="#9196B9"/>
<rect width="105.28" height="29.8702" rx="8" transform="matrix(1 0 0 -1 37.9521 143.673)" fill="#BCC0D6"/>
<rect width="105.28" height="29.8702" rx="8" transform="matrix(1 0 0 -1 37.9521 181.378)" fill="#626894"/>
<rect width="105.28" height="29.8702" rx="8" transform="matrix(1 0 0 -1 151.067 332.197)" fill="#9196B9"/>
<rect width="105.28" height="29.8702" rx="8" transform="matrix(1 0 0 -1 151.067 256.788)" fill="#BCC0D6"/>
<rect width="105.28" height="29.8702" rx="8" transform="matrix(1 0 0 -1 151.067 294.493)" fill="#626894"/>
</svg>
